<?xml version="1.0" encoding="utf-8"?>
<!-- Generator: Adobe Illustrator 24.3.0, SVG Export Plug-In . SVG Version: 6.00 Build 0)  -->
<svg version="1.1" id="Layer_1" xmlns="http://www.w3.org/2000/svg" xmlns:xlink="http://www.w3.org/1999/xlink" x="0px" y="0px"
	 viewBox="0 0 1000 1000" style="enable-background:new 0 0 1000 1000;" xml:space="preserve">
<style type="text/css">
	.st0{fill:#D1D0F2;}
	.st1{fill:#C1C1E8;}
	.st2{fill:#FEC551;}
	.st3{fill:none;stroke:#FCF197;stroke-width:5.2222;stroke-linecap:round;stroke-linejoin:round;stroke-miterlimit:10;}
	.st4{fill:#F5A53C;}
	.st5{fill:#F08A27;}
	.st6{fill:#FCF197;}
	.st7{fill:#4722AD;}
	.st8{fill:#5D38BC;}
	.st9{fill:#DD9B93;}
	.st10{fill:#470B8B;}
	.st11{fill:#BDC6D7;}
	.st12{fill:#2B1E5E;}
	.st13{fill:#492CBF;}
	.st14{opacity:0.2;fill:#170F3A;enable-background:new    ;}
	.st15{fill:#340675;}
	.st16{fill:#E5C1B6;}
	.st17{fill:#683716;}
	.st18{fill:none;}
	.st19{fill:none;stroke:#A5534C;stroke-width:2.4051;stroke-linecap:round;stroke-linejoin:round;stroke-miterlimit:10;}
	.st20{opacity:0.29;fill:#170F3A;enable-background:new    ;}
	.st21{fill:#3A0A7F;}
	.st22{fill:#4D11A1;}
	.st23{fill:#1C1347;}
	.st24{fill:#0E0A30;}
	.st25{fill:#6210AF;}
	.st26{fill:#FDCE0F;}
	.st27{fill:#FDCF00;}
	.st28{fill:#723F1C;}
	.st29{fill:#AD1446;}
	.st30{fill:#EB4F4F;}
	.st31{fill:#FD9735;}
	.st32{fill:#F493A8;}
	.st33{fill:#BF1845;}
	.st34{fill:#10348C;}
	.st35{fill:#402F7C;}
	.st36{fill:#D38580;}
	.st37{fill:#E0AFA5;}
	.st38{fill:#A30741;}
	.st39{fill:#BA6F3A;}
	.st40{fill:#D98F50;}
	.st41{fill:#894F2C;}
</style>
<g>
	<g>
		<ellipse class="st0" cx="500.29" cy="499.74" rx="495.83" ry="495.83"/>
		<path class="st1" d="M125.24,754.14h750.1c9.12,0,16.56-7.44,16.56-16.56v-0.2c0-9.12-7.44-16.56-16.56-16.56h-750.1
			c-9.12,0-16.56,7.44-16.56,16.56v0.1C108.58,746.7,116.01,754.14,125.24,754.14z"/>
		<g>
			<g>
				<g>
					<path class="st2" d="M813.66,214.37H556.22c-7.44,0-13.49,6.05-13.49,13.49V722.7c0,7.44,6.05,13.49,13.49,13.49h257.44
						c7.44,0,13.49-6.05,13.49-13.49V227.86C827.24,220.42,821.19,214.37,813.66,214.37z"/>
				</g>
				<polyline class="st3" points="676.31,291.52 676.31,260.78 577.74,260.78 577.74,527.84 676.31,527.84 676.31,363.22 				"/>
				<polyline class="st3" points="694.56,362.83 694.56,527.84 777.66,527.84 				"/>
				<polyline class="st3" points="793.13,460.41 793.13,260.78 694.56,260.78 694.56,290.83 				"/>
				<rect x="577.74" y="569.69" class="st3" width="98.57" height="134.77"/>
				<rect x="694.56" y="569.69" class="st3" width="98.57" height="134.77"/>
				<path class="st4" d="M556.22,736.29V227.96h271.03l0,0c0-7.44-6.05-13.49-13.49-13.49H556.32c-7.44,0-13.49,6.05-13.49,13.49
					V722.8C542.63,730.14,548.68,736.29,556.22,736.29L556.22,736.29z"/>
				<path class="st5" d="M810.98,471.71h-17.45c-2.38,0-4.26,1.88-4.26,4.26v71c0,2.38,1.88,4.26,4.26,4.26h17.45
					c2.38,0,4.26-1.88,4.26-4.26v-71C815.24,473.6,813.36,471.71,810.98,471.71z"/>
				<circle class="st2" cx="801.96" cy="535.97" r="7.83"/>
				<path class="st6" d="M686.72,340.71h-3.87c-8.23,0-14.97-6.74-14.97-14.97v-0.1c0-4.26,3.47-7.83,7.83-7.83h18.15
					c4.26,0,7.83,3.47,7.83,7.83v0.1C701.7,333.97,695.05,340.71,686.72,340.71z"/>
				<circle class="st6" cx="684.84" cy="306.5" r="4.36"/>
				<path class="st3" d="M687.22,350.23h-4.96c-1.88,0-3.47-1.29-3.87-3.17l-3.67-17.16c-0.5-2.48,1.39-4.76,3.87-4.76h12.2
					c2.48,0,4.36,2.28,3.87,4.76l-3.67,17.16C690.69,348.94,689.1,350.23,687.22,350.23z"/>
			</g>
		</g>
		<g>
			<g>
				<path class="st7" d="M454.77,444.44c-0.2-3.67-1.39-6.84-3.47-9.22l-0.1-0.1c0,0-31.63-44.72-45.02-63.96
					c-14.18-20.53-25.88-31.54-26.38-32.13l-0.6-0.79l-0.1,0.1l0,0c-12.59-14.68-35.5-15.67-50.58-1.39
					c-15.07,14.28-15.37,37.19-1.39,50.58l0.1,0.1l-0.1,0.1l91.83,76.76c3.97,4.26,10.41,5.85,17.45,3.77
					C447.23,464.97,455.27,454.46,454.77,444.44z"/>
				<path class="st8" d="M406.28,371.16c-5.36-7.74-10.31-14.08-14.58-19.14l-9.22,11.4l21.22,21.12l11.8,0.6
					C412.43,380.28,409.35,375.52,406.28,371.16z"/>
			</g>
			<g>
				<g>
					<path class="st9" d="M516.75,357.07c5.26-3.47,12.4-2.28,16.16,2.78c1.98,2.58,2.78,5.75,2.38,8.93
						c-0.4,3.17-2.08,6.05-4.66,7.93c-2.58,1.98-5.75,2.78-8.93,2.38c-3.17-0.4-6.05-2.08-7.93-4.66c-1.98-2.58-2.78-5.75-2.38-8.93
						c0.4-3.17,2.08-6.05,4.66-7.93C516.25,357.37,516.45,357.17,516.75,357.07z"/>
				</g>
				<g>
					<polygon class="st9" points="514.17,360.35 502.47,376.31 512.68,386.23 530.24,376.11 					"/>
				</g>
			</g>
			<path class="st7" d="M523.49,389.6L523.49,389.6c-0.1,0.1-47.7,45.82-59.1,57.32c-11.31,11.4-19.44,16.86-19.73,17.16l-0.4,0.4
				l0,0l0,0c-8.53,7.14-21.32,5.95-28.46-2.58c-7.14-8.53-5.95-21.32,2.58-28.46c0,0,0.1,0,0.1-0.1l0,0l85.68-65.75L523.49,389.6z"
				/>
			<polygon class="st10" points="519.33,396.05 525.28,389.9 505.35,365.7 497.71,369.97 			"/>
			<path class="st11" d="M490.57,377.6L510.9,402c-1.69,1.69-3.47,3.47-5.36,5.26l-20.92-25.19L490.57,377.6z"/>
			<g>
				<path class="st8" d="M169.17,464.08c3.67-0.2,6.84-1.39,9.22-3.47l0.1-0.1c0,0,44.72-31.63,63.96-45.02
					c20.53-14.18,31.54-25.88,32.13-26.38l0.79-0.6l-0.1-0.1l0,0c14.68-12.59,15.67-35.5,1.39-50.58
					c-14.28-15.07-37.19-15.37-50.58-1.39l-0.1,0.1l-0.1-0.1l-76.66,92.13c-4.26,3.97-5.85,10.41-3.77,17.45
					C148.64,456.54,159.15,464.57,169.17,464.08z"/>
				<path class="st10" d="M242.45,415.58c7.74-5.36,14.08-10.31,19.14-14.58l-11.4-9.22L229.06,413l-0.6,11.8
					C233.33,421.73,238.09,418.66,242.45,415.58z"/>
			</g>
			<path class="st12" d="M227.58,820.09l41.75,0.69V806.6l-27.77-0.4l-15.97,7.24c-1.29,0.59-2.18,1.78-2.18,3.07l0,0
				C223.41,818.4,225.3,820.09,227.58,820.09z"/>
			
				<ellipse transform="matrix(0.0991 -0.9951 0.9951 0.0991 -574.6232 978.3939)" class="st12" cx="253.01" cy="806.53" rx="12" ry="12"/>
			<g>
				
					<ellipse transform="matrix(0.1287 -0.9917 0.9917 0.1287 -509.7319 1032.9099)" class="st12" cx="332.94" cy="806.53" rx="12" ry="12"/>
				<path class="st12" d="M358.68,820.68h-42.25V806.5h28.16l16.16,7.54c1.39,0.59,2.18,1.78,2.18,3.07l0,0
					C362.84,819.1,360.96,820.68,358.68,820.68z"/>
				<ellipse class="st10" cx="277.51" cy="506.01" rx="19.34" ry="19.34"/>
				<ellipse class="st13" cx="340.23" cy="506.02" rx="19.34" ry="19.34"/>
				<path class="st10" d="M360.56,486.69l-0.99,19.34v0.99c-0.5,10.31-9.02,18.35-19.34,18.35h-62.67
					c-10.31,0-18.84-8.13-19.34-18.35v-0.99l-0.99-19.34H360.56z"/>
				<polygon class="st8" points="308.89,506.02 368.49,506.02 353.72,806.6 308.5,806.6 				"/>
				<polygon class="st8" points="232.14,805.41 249.89,502.65 317.42,511.58 273.59,808.68 				"/>
				<polygon class="st7" points="309.39,806.6 306.32,581.29 318.81,524.67 312.46,723.3 				"/>
				<polygon class="st14" points="366.51,547.08 246.91,547.08 246.52,563.64 365.72,561.76 				"/>
			</g>
			<polygon class="st11" points="234.92,759.1 281.03,759.1 279.74,767.33 234.42,767.33 			"/>
			<polygon class="st11" points="235.61,747 282.71,747 281.33,756.12 235.11,756.12 			"/>
			<polygon class="st11" points="356.2,756.12 308.6,756.12 308.6,747 356.69,747 			"/>
			<polygon class="st11" points="355.6,767.33 308.6,767.33 308.6,759.1 356.1,759.1 			"/>
			<path class="st8" d="M243.84,552.33h120.29c5.85,0,10.91-4.46,11.5-10.31l6.55-63.07l7.54-57.12c1.69-14.18,1.69-28.56,0.2-42.74
				l-2.28-21.32c-1.98-17.95-17.06-31.44-35.11-31.44h-97.78c-18.15,0-33.32,13.78-35.11,31.83l-2.08,22.02
				c-1.29,13.49-1.19,27.07,0.4,40.46l14.28,121.38C232.93,547.87,237.89,552.33,243.84,552.33z"/>
			<path class="st11" d="M390.21,417.07c-0.1,1.59-0.3,3.17-0.5,4.76l-0.3,2.88H218.45l-0.5-3.97c-0.1-1.19-0.3-2.38-0.4-3.57
				h172.65V417.07z"/>
			<path class="st11" d="M390.61,412.21H217.26c-0.2-2.58-0.3-5.06-0.4-7.64h174.14C390.91,407.15,390.81,409.63,390.61,412.21z"/>
			<rect x="308.5" y="343.09" class="st7" width="15.37" height="206.27"/>
			<g>
				<circle class="st15" cx="319.21" cy="350.33" r="2.18"/>
				<circle class="st15" cx="319.21" cy="386.82" r="2.18"/>
				<circle class="st15" cx="319.21" cy="423.42" r="2.18"/>
				<circle class="st15" cx="319.21" cy="459.91" r="2.18"/>
				<circle class="st15" cx="319.21" cy="496.5" r="2.18"/>
				<circle class="st15" cx="319.21" cy="533" r="2.18"/>
			</g>
			<g>
				<rect x="254.17" y="486.97" class="st10" width="31.34" height="1.69"/>
				<rect x="283.79" y="486.93" class="st10" width="1.69" height="10.31"/>
			</g>
			<g>
				<rect x="344.1" y="486.98" class="st10" width="31.34" height="1.69"/>
				<rect x="344.04" y="486.98" class="st10" width="1.69" height="10.31"/>
			</g>
			<g>
				<path class="st10" d="M331.5,325.74h-58.31v-9.02c0-1.98,1.19-3.67,2.98-4.36l0,0c16.56-6.55,35.9-6.55,52.36,0
					c1.79,0.69,2.88,2.38,2.88,4.26v9.12H331.5z"/>
				<path class="st15" d="M277.66,324.55l12,18.64c0,0,19.24,5.95,21.92,5.55c2.68-0.4,6.15-4.26,8.03-6.35
					c1.88-2.08,11.01-19.83,11.01-19.83L277.66,324.55z"/>
				<g>
					<path class="st16" d="M303.14,343.88L303.14,343.88c-10.41,0-18.84-8.43-18.84-18.84v-46.61h37.58v46.61
						C321.98,335.45,313.56,343.88,303.14,343.88z"/>
					<polygon class="st9" points="321.69,323.55 294.32,309.47 295.8,294.7 321.69,296.48 					"/>
					<path class="st17" d="M333.79,262.57l-13.69,0.69l-2.08-39.87l13.69-0.69c11.01-0.6,20.43,7.93,21.02,18.94l0,0
						C353.22,252.55,344.79,261.97,333.79,262.57z"/>
					<path class="st17" d="M295.41,300.25l-14.48,0.79c-8.03,0.4-14.78-5.75-15.17-13.69l-1.39-27.27l28.96-1.49L295.41,300.25z"/>
					<path class="st16" d="M327.44,313.34l-17.85,0.89c-14.58,0.79-26.97-10.41-27.77-24.99l-2.98-57.02l64.95-3.37l3.27,62.67
						C347.67,303.03,338.84,312.75,327.44,313.34z"/>
					<path class="st18" d="M346.48,278.33l-2.78-27.37L346.48,278.33z"/>
					<path class="st17" d="M291.24,218.44l4.36-0.2l1.88,36.2c0.3,4.86-3.47,8.93-8.33,9.22l-24.49,1.29l-0.79-15.97
						C262.98,232.82,275.18,219.23,291.24,218.44z"/>
					<path class="st16" d="M281.42,281.31l8.63-0.5l-0.5-8.63c-0.3-4.76-4.36-8.43-9.12-8.23l0,0c-4.76,0.3-8.43,4.36-8.23,9.12l0,0
						C272.5,277.94,276.66,281.61,281.42,281.31z"/>
					<g>
						<ellipse class="st17" cx="313.65" cy="262.86" rx="3.27" ry="3.27"/>
						<ellipse class="st17" cx="336.27" cy="262.86" rx="3.27" ry="3.27"/>
						<path class="st17" d="M318.02,251.56L318.02,251.56c0.3,0.89-0.3,1.88-1.19,1.98l-13.19,1.39l0,0
							c0.2-1.59,1.39-2.88,2.98-3.07l9.82-1.29C317.13,250.57,317.82,250.96,318.02,251.56z"/>
						<path class="st17" d="M331.31,251.76L331.31,251.76c-0.3,0.89,0.3,1.88,1.19,1.98l13.19,1.39l0,0
							c-0.2-1.59-1.39-2.88-2.98-3.07l-9.82-1.29C332.2,250.77,331.6,251.16,331.31,251.76z"/>
						<g>
							<path class="st19" d="M333.09,289.94c0,0-4.86,6.94-13.49,0.79"/>
						</g>
					</g>
					<path class="st17" d="M296.5,238.37l53.35-2.48c5.55-0.3,9.82-5.06,9.62-10.61l0,0c-0.3-5.55-5.06-9.92-10.61-9.62l-57.62,2.68
						L296.5,238.37z"/>
				</g>
				<path class="st7" d="M315.04,329.5l1.19,16.46c0,0,14.97-9.82,15.27-20.23v-6.84c0-1.59-1.98-2.28-2.98-0.99
					C325.55,321.87,320.7,327.42,315.04,329.5z"/>
				<path class="st7" d="M311.67,348.74l-0.3-19.04c0,0-15.67-0.5-23.3-3.87c-4.17-1.88-8.73-5.45-11.7-8.43
					c-1.19-1.19-3.17-0.3-3.17,1.29v7.04C273.19,325.74,266.85,343.98,311.67,348.74z"/>
			</g>
			<path class="st7" d="M216.77,396.44l35.3,155.89h-8.23c-5.85,0-10.91-4.46-11.5-10.31l-15.07-121.38
				C216.17,412.61,216.67,404.57,216.77,396.44z"/>
			<g>
				<path class="st20" d="M196.64,543.11c7.44,10.81,27.67,18.94,46.31,23.21c3.87,1.09,11.11,2.78,19.34,3.47
					c10.71,0.89,25.09,0.4,30.15-1.39c7.44-2.58,12-16.16,11.7-23.01c-0.2-4.96-3.67-7.44-5.55-8.53c-0.1-0.4-0.1-0.59-0.1-0.59
					c-0.5-9.12-0.6-11.21-1.29-18.15c-0.2-1.88-0.5-4.17-0.79-7.24c-0.89-7.74-1.88-11.9-2.58-14.08c1.39,0,2.88,0,4.17-0.1
					c6.45-0.1,11.31-0.79,12.69-2.48c4.66-5.45,3.67-12-11.7-24.2c-19.83-15.87-43.44-19.14-43.44-19.14
					c-8.83-1.49-17.16-0.79-24.1,0.69c-0.4,0-0.6,0-0.6,0s-9.52,2.08-11.6,3.17c0,0,0.3,0,0.99-0.1c-4.36,1.59-6.94,2.98-7.04,2.98
					c-5.16,2.38-8.23,4.46-8.23,4.46s-12.3,10.41-15.07,26.68C187.12,505.33,187.41,529.72,196.64,543.11z M296.8,541.53
					c-0.1,0.1-0.2,0.2-0.3,0.2v-0.1C296.5,541.62,296.7,541.53,296.8,541.53L296.8,541.53z"/>
				<g>
					<g>
						<g>
							<g>
								<path class="st21" d="M195.45,461.1c0,0-12.3,10.41-15.07,26.68c-2.78,16.26-2.48,40.66,6.74,54.05
									c13.59,19.73,69.81,30.54,81.42,25.59c11.5-5.06,17.45-15.27,18.25-20.63c0.79-5.36-0.3-9.82-0.3-9.82
									c2.08-14.68,1.98-13.59,0.4-27.17c-1.59-13.49-3.47-16.16-3.47-16.16s-5.55-23.9-27.07-36.59
									C226.88,439.68,195.45,461.1,195.45,461.1z"/>
							</g>
						</g>
						<path class="st22" d="M287.87,535.18c0,0,6.35,2.28,6.74,9.02c0.3,6.84-4.26,20.33-11.7,23.01
							c-5.06,1.78-19.44,2.28-30.15,1.39c-12.1-1.09-22.21-4.36-22.21-4.36s25.59,1.59,29.25-1.79c3.67-3.37,0.99-19.54,0.99-19.54
							s11.01,0.99,19.24-0.2C286.09,541.82,290.55,539.74,287.87,535.18z"/>
						<g>
							<path class="st23" d="M282.91,492.24c0.3,0.89,0.4,1.39,0.4,1.39s1.88,2.68,3.47,16.16c1.59,13.59,1.59,13.69,2.18,25.39
								c0,0,1.09,3.87-1.69,5.16c-10.21,4.46-24.79,3.17-38.18,0.3c-0.3-15.77,0.99-31.63,2.28-47.5
								C265.95,493.83,276.57,493.03,282.91,492.24z"/>
							<path class="st24" d="M210.02,499.18c4.46-6.25,13.39-9.82,24.69-7.24c2.98,0.3,6.25,0.5,9.82,0.79
								c2.38,0.2,4.66,0.3,6.84,0.4c1.49,9.42,0.99,31.34-2.28,47.5c-9.12-1.98-17.75-4.56-23.9-6.64
								c-7.83-4.26-12.99-9.42-15.77-14.58C205.56,512.07,206.16,504.63,210.02,499.18z"/>
						</g>
						<path class="st22" d="M246.02,449.8c0,0,23.5,3.27,43.44,19.14c15.27,12.2,16.26,18.74,11.7,24.2
							c-4.66,5.45-45.82,0.6-56.53-0.3c-10.71-0.89-10.71-0.89-10.71-0.89s31.73,3.87,25.09-11.21
							c-4.66-10.51-18.64-17.26-30.25-21.02c-11.7-3.77-24.89-2.98-24.89-2.98s5.36-2.88,13.78-5.16
							C225.1,449.5,235.21,448.01,246.02,449.8z"/>
						<g>
							<path class="st25" d="M272.3,516.14c0.1,1.09,1.09,1.98,2.18,1.88l0,0c1.09-0.1,1.98-1.09,1.88-2.18l-0.89-13.69
								c-0.1-1.09-1.09-1.98-2.18-1.88l0,0c-1.09,0.1-1.98,1.09-1.88,2.18L272.3,516.14z"/>
						</g>
						<g>
							<path class="st25" d="M278.65,528.83c0.1,1.09,1.09,1.98,2.18,1.88l0,0c1.09-0.1,1.98-1.09,1.88-2.18l-1.29-25.68
								c-0.1-1.09-1.09-1.98-2.18-1.88l0,0c-1.09,0.1-1.98,1.09-1.88,2.18L278.65,528.83z"/>
						</g>
					</g>
					<path class="st26" d="M209.73,453.66c0,0,20.53-1.39,40.66,4.46c20.13,5.75,35.11,19.83,35.3,27.37
						c0.2,7.54-7.83,9.82-7.83,9.82s9.42,0.89,12.59-0.2c3.17-1.09,12.3-18.15-16.86-32.43c-29.65-14.58-52.26-12.2-52.26-12.2
						S211.71,452.57,209.73,453.66z"/>
					
						<ellipse transform="matrix(0.6403 -0.7681 0.7681 0.6403 -267.2494 394.5706)" class="st26" cx="287.68" cy="482.64" rx="8.33" ry="10.81"/>
					<g>
						<path class="st12" d="M275.38,548.96c-0.5,0-0.89,0.5-0.89,0.99l0,0c0,0.5,0.5,0.89,0.99,0.89l6.15-0.4
							c0.5,0,0.89-0.5,0.89-0.99l0,0c0-0.5-0.5-0.89-0.99-0.89L275.38,548.96z"/>
					</g>
				</g>
			</g>
			<g>
				<g>
					<g>
						<path class="st16" d="M258.02,527.84c3.47,5.26,2.28,12.4-2.78,16.16c-2.58,1.98-5.75,2.78-8.93,2.38
							c-3.17-0.4-6.05-2.08-7.93-4.66c-1.98-2.58-2.78-5.75-2.38-8.93c0.4-3.17,2.08-6.05,4.66-7.93c2.58-1.98,5.75-2.78,8.93-2.38
							c3.17,0.4,6.05,2.08,7.93,4.66C257.72,527.34,257.82,527.54,258.02,527.84z"/>
					</g>
					<g>
						<polygon class="st16" points="254.65,525.26 238.68,513.56 228.87,523.77 238.98,541.33 						"/>
					</g>
				</g>
				<path class="st8" d="M225.49,534.58L225.49,534.58c-0.1-0.1-45.82-47.7-57.32-59.1c-11.4-11.31-16.86-19.44-17.16-19.73
					l-0.4-0.4l0,0l0,0c-7.14-8.53-5.95-21.32,2.58-28.46c8.53-7.14,21.32-5.95,28.46,2.58c0,0,0,0.1,0.1,0.1l0,0l65.75,85.68
					L225.49,534.58z"/>
				<polygon class="st7" points="219.05,530.32 225.2,536.27 249.29,516.44 245.03,508.8 				"/>
				<path class="st11" d="M237.49,501.66l-24.4,20.33c-1.69-1.69-3.47-3.47-5.26-5.36l25.19-20.92L237.49,501.66z"/>
			</g>
			<g>
				<path class="st27" d="M349.75,388.51c0-1.59-1.39-2.68-3.27-2.68s-3.77,1.29-3.77,4.26c0,2.28,1.39,3.97,3.77,3.97
					c1.29,0,2.78-0.79,3.17-1.29c0,0-0.3-0.99-0.99-0.99c-0.4,0-0.6,0.1-0.89,0.3c-0.3,0.1-0.69,0.2-1.19,0.2
					c-0.69,0-1.79-0.3-1.79-1.69c0,0,0.5,0.2,1.79,0.2C349.16,390.79,349.75,389.7,349.75,388.51z M346.58,387.62
					c0.89,0,1.29,0.5,1.29,0.89c0,0.5-0.5,0.89-1.39,0.89c-1.29,0-1.69-0.2-1.69-0.2C344.79,388.51,345.39,387.62,346.58,387.62z"/>
				<path class="st27" d="M354.61,392.38c-0.89,0-1.39-0.79-1.49-1.09c-0.1-0.3-0.1-0.79-0.1-1.29v-2.48h0.69
					c0.5,0,0.89-0.2,1.19-0.5s0.4-0.69,0.4-1.29h-2.28v-1.09c0-0.3,0-0.6,0-0.79c0-0.2,0-0.4,0-0.5s0-0.2,0-0.3
					c-0.69,0-1.19,0.2-1.59,0.5c-0.4,0.3-0.6,0.79-0.6,1.49v5.45c0,2.18,1.09,3.67,3.07,3.67c0.99,0,1.69-0.5,1.69-1.39
					c0-0.3,0-0.4-0.1-0.5C355.5,392.28,355.21,392.38,354.61,392.38z"/>
				<path class="st27" d="M357.39,385.24c0.2,0.1,0.3,0.1,0.5,0.1c0.4,0,0.79-0.2,0.99-0.6c0.1-0.2,0.2-0.4,0.2-0.6
					c0-0.2,0-0.4-0.1-0.6c-0.1-0.2-0.2-0.3-0.4-0.4c-0.2-0.1-0.3-0.1-0.5-0.1c-0.2,0-0.4,0.1-0.6,0.2c-0.2,0.1-0.3,0.3-0.4,0.5
					c-0.1,0.2-0.2,0.4-0.2,0.6c0,0.2,0,0.4,0.1,0.6C357.09,384.94,357.19,385.14,357.39,385.24z"/>
				<path class="st27" d="M359.67,392.48c-0.5,0-0.69-0.3-0.69-0.89v-3.87c0-0.3,0-0.6,0-0.79s0-0.4,0-0.5c0-0.1,0-0.2,0-0.3
					c-0.69,0-1.29,0.2-1.59,0.5c-0.4,0.3-0.6,0.79-0.6,1.49v3.97c0,1.39,0.89,2.18,2.08,2.18c0.69,0,1.39-0.4,1.39-1.19
					c0-0.3-0.1-0.6-0.1-0.6C360.06,392.38,359.97,392.48,359.67,392.48z"/>
				<path class="st27" d="M364.92,386.03c-0.4,0-0.89,0-1.29,0.1c-0.4,0.1-0.79,0.3-1.19,0.6c-0.4,0.3-0.69,0.69-0.89,1.19
					c-0.2,0.5-0.3,1.09-0.3,1.88v2.28c0,0.69,0.1,1.29,0.5,1.69c0.5,0.3,0.99,0.4,1.69,0.4c0-0.1,0-0.3,0-0.4c0-0.1,0-0.3,0-0.5
					c0-0.2,0-0.5,0-0.79v-2.88c0-0.69,0.1-1.59,1.29-1.69c0.69-0.1,1.29-0.3,1.29-1.09c0-0.2,0-0.5-0.1-0.69h-0.99V386.03z"/>
				<path class="st27" d="M337.95,385.83c-2.48,0-3.77,1.69-3.77,3.77c0,1.88,1.19,3.77,3.27,3.77c1.09,0,1.79-0.5,1.88-0.6v0.99
					c0,1.09-0.4,1.88-1.59,1.88c-0.5,0-0.89-0.1-1.29-0.3c-0.3-0.2-0.6-0.3-0.89-0.3c-0.79,0-1.09,0.99-1.09,0.99
					c0.6,0.79,2.08,1.39,3.27,1.39c2.38,0,3.67-1.39,3.67-4.07c0,0,0-2.78,0-3.17C341.52,387.52,340.43,385.83,337.95,385.83z
					 M337.95,391.48c-0.89,0-1.59-0.6-1.59-1.88c0-1.39,0.69-2.08,1.59-2.08c0.89,0,1.59,0.5,1.59,1.98
					C339.44,390.99,338.74,391.48,337.95,391.48z"/>
			</g>
		</g>
		<g>
			<path class="st28" d="M752.87,297.77c0,13.09,16.16,17.55,18.45,40.86c2.28,23.3-13.59,19.34-3.97,48.2
				c9.62,28.96-13.49,47.8-51.07,50.97c-43.83,3.77-87.37-17.55-75.47-52.76c11.9-35.2,24.4-30.64,18.74-49.39
				c-5.65-18.74,6.25-18.74,5.65-37.49C664.61,279.62,752.87,267.13,752.87,297.77z"/>
			<path class="st28" d="M752.77,385.53h-88.36v-97.98c0-24.4,19.83-44.23,44.23-44.23l0,0c24.4,0,44.23,19.83,44.23,44.23
				L752.77,385.53z"/>
			<g>
				<g>
					<path class="st16" d="M570.1,505.43c-3.37-1.79-4.66-6.05-2.88-9.42c1.79-3.37,6.05-4.66,9.42-2.88s4.66,6.05,2.88,9.42
						C577.74,506.02,573.47,507.31,570.1,505.43z"/>
					<path class="st16" d="M556.42,505.63L556.42,505.63c-0.79,0.69-1.39,1.59-1.98,2.58c-2.58,4.76-0.69,10.71,4.07,13.19
						c4.76,2.58,10.71,0.69,13.19-4.07l7.83-14.78l-10.91-8.33L556.42,505.63z"/>
					<path class="st29" d="M635.85,435.51c-1.19,7.14,3.67,13.98,10.81,15.17c7.14,1.19,13.98-3.67,15.17-10.81
						c1.19-7.14-3.67-13.98-10.81-15.17C643.78,423.52,637.04,428.37,635.85,435.51z"/>
					<polygon class="st29" points="668.58,362.53 636.74,432.44 660.05,444.54 699.81,379.09 					"/>
					<polygon class="st16" points="636.05,433.73 568.61,494.22 577.44,505.03 649.34,447.91 					"/>
					<polygon class="st29" points="578.13,485.4 588.05,497.4 655.49,449.1 638.82,428.77 					"/>
				</g>
				<path class="st30" d="M671.35,473.2c0,17.95,14.48,32.43,32.43,32.43s39.27-14.48,39.27-32.43c0-17.95-21.32-32.43-39.27-32.43
					C685.83,440.77,671.35,455.25,671.35,473.2z"/>
				<ellipse class="st31" cx="684.72" cy="370.99" rx="18.15" ry="18.15"/>
				<ellipse class="st32" cx="681.01" cy="807.81" rx="9.02" ry="9.02"/>
				<path class="st33" d="M666.69,371.75l4.66,101.45h71.7l20.03-106.51c1.79-7.04-3.57-13.88-10.81-13.88h-67.43
					C674.43,352.81,666.2,361.44,666.69,371.75z"/>
				<ellipse class="st33" cx="684.74" cy="370.98" rx="18.15" ry="18.15"/>
				<path class="st34" d="M671.35,473.2L671.35,473.2h28.66h42.94l3.47,2.68c11.8,9.12,11.8,23.21,11.8,38.08v13.98
					c0,10.81-3.67,19.54-14.38,19.54h-56.33c-10.81,0-24.59-8.73-24.59-19.54V508.8C663.02,496.5,665.8,484.31,671.35,473.2z"/>
				<path class="st33" d="M708.84,384.34l-28.96-21.82l-23.21,30.54l0,0c-1.29,1.69-2.28,3.67-2.98,5.85
					c-2.88,9.62,2.68,19.64,12.3,22.51c7.44,2.18,15.17-0.6,19.54-6.45l0,0L708.84,384.34z"/>
				<path class="st32" d="M740.57,484.31c1.39,3.57,5.36,5.45,8.93,4.07c3.57-1.39,5.45-5.36,4.07-8.93s-5.36-5.45-8.93-4.07
					C741.07,476.67,739.18,480.74,740.57,484.31z"/>
				<ellipse class="st33" cx="751.59" cy="371" rx="18.15" ry="18.15"/>
				<path class="st16" d="M735.81,499.48c0.99-0.4,1.98-0.89,2.78-1.59l0,0l12.89-10.61l-6.84-11.9l-15.67,5.85
					c-5.06,1.88-7.64,7.54-5.75,12.59C725.1,498.78,730.75,501.36,735.81,499.48z"/>
				<path class="st33" d="M806.42,423.81c-5.45-4.76-5.95-13.09-1.19-18.54c4.76-5.45,13.09-5.95,18.54-1.19
					c5.45,4.76,5.95,13.09,1.19,18.54C820.2,428.08,811.87,428.57,806.42,423.81z"/>
				<polygon class="st33" points="762.69,356.58 823.18,403.48 808.5,425.3 742.46,386.53 				"/>
				<polygon class="st16" points="823.77,423.81 751.68,487.08 741.86,477.26 805.23,405.17 				"/>
				<polygon class="st33" points="761.5,478.55 750.49,467.55 805.23,405.17 823.77,423.81 				"/>
				<path class="st34" d="M701.99,527.94c0,10.81-3.67,19.54-14.38,19.54c-10.81,0-24.59-8.73-24.59-19.54
					c0-10.81,8.73-19.54,19.54-19.54C693.27,508.4,701.99,517.13,701.99,527.94z"/>
				<path class="st34" d="M758.22,526.15c0.99,10.71-1.78,20.23-12.5,21.22c-10.71,0.99-25.39-6.84-26.38-17.65
					c-0.99-10.71,6.84-20.23,17.65-21.22C747.71,507.51,757.23,515.44,758.22,526.15z"/>
				<path class="st35" d="M671.95,807.79h18.15v12.59h-25.39c-2.18,0-3.87-1.79-3.87-3.87l0,0c0-1.39,0.69-2.68,1.98-3.37
					L671.95,807.79z"/>
				<path class="st32" d="M703.18,642.38c-0.3,9.02-8.33,16.16-18.05,16.07c-9.72-0.1-17.55-7.44-17.55-16.46
					c0-9.12,8.13-16.56,18.05-16.46C695.55,625.62,703.38,633.26,703.18,642.38z"/>
				<polygon class="st34" points="703.18,642.38 690.09,807.89 671.95,807.89 667.58,641.98 				"/>
				<g>
					<polygon class="st34" points="710.42,528.93 703.18,642.38 667.68,643.17 663.02,529.72 					"/>
				</g>
				<path class="st32" d="M718.26,642.38c0.3,9.02,8.33,16.16,18.05,16.07c9.72-0.1,17.55-7.44,17.55-16.46
					c0-9.12-8.13-16.56-18.05-16.46C725.89,625.62,718.06,633.26,718.26,642.38z"/>
				<polygon class="st34" points="718.26,642.38 731.35,807.89 749.5,807.89 753.86,641.98 				"/>
				<g>
					<polygon class="st34" points="711.02,528.93 718.26,642.38 753.86,643.17 758.42,529.72 					"/>
				</g>
				<ellipse class="st9" cx="708.6" cy="352.79" rx="15.37" ry="15.37"/>
				<polygon class="st9" points="694.06,351.62 724.6,354 729.07,301.04 698.42,298.66 				"/>
				<path class="st16" d="M729.96,311.56l-6.35-0.5l0.99-12.79l6.35,0.5c3.57,0.3,6.15,3.37,5.85,6.84l0,0
					C736.6,309.18,733.53,311.85,729.96,311.56z"/>
				<path class="st35" d="M749.5,807.79h-18.15v12.59h25.39c2.18,0,3.87-1.79,3.87-3.87l0,0c0-1.39-0.69-2.68-1.98-3.37
					L749.5,807.79z"/>
				<polygon class="st36" points="694.66,345.47 715.38,335.95 722.52,323.06 696.54,323.36 				"/>
				<path class="st16" d="M702.59,260.78l2.38,0.2c15.17,1.19,26.58,14.48,25.39,29.65l-1.79,23.7
					c-1.19,15.57-14.78,27.17-30.25,25.98l-0.69-0.1c-14.48-1.09-25.29-13.78-24.2-28.16l2.18-27.97
					C676.61,270,688.71,259.69,702.59,260.78z"/>
				<path class="st28" d="M730.85,294.2h1.29l-1.09-36.99l-42.74,1.29c-7.54,0.2-13.49,6.55-13.29,14.08l0.2,5.26h1.29
					c10.91-0.3,21.62,2.98,30.54,9.22l0,0C713.99,291.92,722.32,294.4,730.85,294.2L730.85,294.2z"/>
				
					<ellipse transform="matrix(0.9978 -0.0667 0.0667 0.9978 -18.3995 47.707)" class="st28" cx="705.68" cy="299.57" rx="2.58" ry="2.58"/>
				
					<ellipse transform="matrix(0.9978 -0.0667 0.0667 0.9978 -18.3453 46.3553)" class="st28" cx="685.45" cy="298.08" rx="2.58" ry="2.58"/>
				
					<ellipse transform="matrix(0.9464 -0.3231 0.3231 0.9464 -63.0207 246.0628)" class="st37" cx="709.66" cy="312.86" rx="4.36" ry="4.36"/>
				
					<ellipse transform="matrix(0.9464 -0.3231 0.3231 0.9464 -63.4979 235.8645)" class="st37" cx="678.7" cy="309.2" rx="4.36" ry="4.36"/>
				<polygon class="st38" points="742.95,473.2 758.02,395.15 736.8,473.2 				"/>
				<g>
					<path class="st19" d="M700.21,320.88c0,0-6.05,5.95-13.39-1.69"/>
				</g>
			</g>
		</g>
		<g>
			<path class="st9" d="M520.82,357.97c4.07-2.68,9.62-1.79,12.59,2.18c1.49,1.98,2.18,4.46,1.78,6.94
				c-0.3,2.48-1.59,4.66-3.57,6.15c-1.98,1.49-4.46,2.18-6.94,1.79c-2.48-0.3-4.66-1.59-6.15-3.57c-1.49-1.98-2.18-4.46-1.79-6.94
				c0.3-2.48,1.59-4.66,3.57-6.15C520.52,358.26,520.62,358.06,520.82,357.97z"/>
		</g>
	</g>
	<g>
		<g>
			<g>
				<g>
					<path class="st39" d="M497.41,392.97V377.9c0-0.79,0.3-1.49,0.89-2.08l9.02-9.02c0.6-0.6,1.29-0.89,2.08-0.89h28.46
						c0.79,0,1.49,0.3,2.08,0.89l8.93,8.93c0.6,0.6,0.89,1.29,0.89,2.08v17.75c0,2.08-2.08,3.47-4.07,2.68l-0.3-0.1
						c-1.09-0.5-1.79-1.49-1.79-2.68v-21.02c0-0.79-0.3-1.49-0.79-1.98l-1.69-1.79c-0.59-0.6-1.29-0.89-2.08-0.89h-30.44
						c-0.79,0-1.49,0.3-2.08,0.89l-1.88,1.88c-0.6,0.6-0.89,1.29-0.89,2.08v18.54c0,1.79-1.59,3.17-3.37,2.88l-0.4-0.1
						C498.5,395.65,497.41,394.46,497.41,392.97z"/>
					<path class="st40" d="M513.68,392.97V377.9c0-0.79,0.3-1.49,0.89-2.08l9.02-9.02c0.59-0.6,1.29-0.89,2.08-0.89h28.46
						c0.79,0,1.49,0.3,2.08,0.89l8.93,8.93c0.59,0.6,0.89,1.29,0.89,2.08v17.75c0,2.08-2.08,3.47-4.07,2.68l-0.3-0.1
						c-1.09-0.5-1.78-1.49-1.78-2.68v-21.02c0-0.79-0.3-1.49-0.79-1.98l-1.69-1.79c-0.6-0.6-1.29-0.89-2.08-0.89h-30.44
						c-0.79,0-1.49,0.3-2.08,0.89l-1.88,1.88c-0.59,0.6-0.89,1.29-0.89,2.08v18.54c0,1.79-1.59,3.17-3.37,2.88l-0.4-0.1
						C514.67,395.65,513.68,394.46,513.68,392.97z"/>
					<g>
						<g>
							<path class="st39" d="M509.51,390.49c0,12.2,0,121.18,0,121.18h-43.14c0,0,0-108.99,0-121.18H509.51z"/>
							<polygon class="st41" points="484.32,499.28 503.26,511.68 466.27,511.68 							"/>
							<path class="st40" d="M505.05,390.49c0,12.2,0,121.18,0,121.18h79.53c0,0,0-108.99,0-121.18H505.05z"/>
						</g>
					</g>
					<g>
						<path class="st41" d="M561.67,489.56h-34.11c-1.29,0-2.38-1.09-2.38-2.38l0,0c0-1.29,1.09-2.38,2.38-2.38h34.11
							c1.29,0,2.38,1.09,2.38,2.38l0,0C564.05,488.47,562.96,489.56,561.67,489.56z"/>
						<path class="st41" d="M548.88,494.62h-8.63c-0.59,0-1.09-0.5-1.09-1.09l0,0c0-0.59,0.5-1.09,1.09-1.09h8.63
							c0.6,0,1.09,0.5,1.09,1.09l0,0C549.97,494.12,549.47,494.62,548.88,494.62z"/>
					</g>
				</g>
				<g>
					<path class="st39" d="M579.03,441.86c0,19.34-15.67,35.11-35.11,35.11c-19.34,0-35.11-15.67-35.11-35.11
						c0-19.34,15.67-35.11,35.11-35.11C563.36,406.76,579.03,422.52,579.03,441.86z"/>
					<path class="st40" d="M575.56,441.86c0,17.45-14.08,31.54-31.54,31.54c-17.45,0-31.54-14.08-31.54-31.54
						c0-17.45,14.08-31.54,31.54-31.54C561.38,410.33,575.56,424.41,575.56,441.86z"/>
					<g>
						<path class="st41" d="M539.95,428.28v11.31c0,0.69-0.5,1.29-0.99,1.29c-0.59,0-0.99-0.6-0.99-1.29l-0.4-11.31h-1.39
							l-0.4,11.31c0,0.69-0.5,1.29-0.99,1.29c-0.59,0-0.99-0.6-0.99-1.29l-0.4-11.31h-1.49l-0.4,11.31c0,0.69-0.5,1.29-0.99,1.29
							c-0.59,0-0.99-0.6-0.99-1.29v-11.31h-1.59c-0.2,3.77-0.3,1.88-0.69,9.02c-0.4,6.84,2.18,8.83,5.36,9.32l-0.79,22.21
							c-10.21-4.66-17.26-14.97-17.26-26.97c0-16.36,13.29-29.65,29.65-29.65c16.36,0,29.65,13.29,29.65,29.65
							c0,12.2-7.34,22.61-17.85,27.17l-0.79-21.82c3.47-0.89,5.95-4.26,5.95-9.52c0-6.15-3.57-12.59-8.03-12.59
							s-8.03,6.45-8.03,12.59c0,5.16,2.58,8.53,5.95,9.52l-0.89,23.6c-1.98,0.4-3.97,0.6-6.05,0.6c-2.28,0-4.46-0.3-6.55-0.69
							l-0.89-24.2c3.17-0.5,5.75-2.48,5.36-9.32c-0.4-7.14-0.5-5.26-0.69-9.02"/>
						<path class="st40" d="M536.48,446.62l0.89,24.2c-1.98-0.5-3.97-1.09-5.85-1.98l0.79-22.21c-3.27-0.5-5.75-2.48-5.36-9.32
							c0.4-6.74,0.5-7.74,0.6-11.01c0-0.3,0.3-0.6,0.69-0.6h0.4c0.4,0,0.69,0.3,0.69,0.69v13.29c0,0.69,0.5,1.29,0.99,1.29
							c0.59,0,0.99-0.6,0.99-1.29l0.4-13.29c0-0.4,0.3-0.6,0.69-0.6h0.2c0.4,0,0.69,0.3,0.69,0.6l0.4,13.29
							c0,0.69,0.5,1.29,0.99,1.29c0.59,0,0.99-0.6,0.99-1.29l0.4-13.29c0-0.4,0.3-0.6,0.69-0.6h0.1c0.4,0,0.59,0.3,0.69,0.6
							l0.4,13.29c0,0.69,0.5,1.29,0.99,1.29c0.59,0,0.99-0.6,0.99-1.29v-13.29c0-0.4,0.3-0.69,0.69-0.69l0,0c0.4,0,0.6,0.3,0.69,0.6
							c0.2,3.27,0.3,4.26,0.59,11.01C542.33,444.14,539.76,446.13,536.48,446.62z"/>
						<path class="st40" d="M555.03,447.32l0.79,21.82c-1.88,0.79-3.77,1.39-5.75,1.88l0.89-23.6c-3.47-0.89-5.95-4.26-5.95-9.52
							c0-6.15,3.57-12.59,8.03-12.59c4.46,0,8.03,6.45,8.03,12.59C560.98,443.05,558.5,446.32,555.03,447.32z"/>
					</g>
				</g>
			</g>
			<g>
				<path class="st9" d="M523.79,359.95c3.97-2.58,9.32-1.79,12.3,2.08c1.49,1.98,2.08,4.36,1.78,6.74
					c-0.3,2.38-1.59,4.56-3.47,6.05c-1.88,1.49-4.36,2.08-6.74,1.79c-2.38-0.3-4.56-1.59-6.05-3.47c-1.49-1.98-2.08-4.36-1.79-6.74
					c0.3-2.38,1.59-4.56,3.47-6.05C523.49,360.25,523.59,360.15,523.79,359.95z"/>
			</g>
		</g>
	</g>
</g>
</svg>
