<svg width="150" height="150" viewBox="0 0 150 150" fill="none" xmlns="http://www.w3.org/2000/svg">
<g clip-path="url(#clip0)">
<path d="M128.03 128.036C157.319 98.7469 157.319 51.26 128.03 21.9709C98.741 -7.31814 51.254 -7.31814 21.965 21.9709C-7.32405 51.26 -7.32405 98.7469 21.965 128.036C51.254 157.325 98.741 157.325 128.03 128.036Z" fill="#F3F0FE"/>
<path d="M118.763 126.254H111.181C110.059 126.254 109.149 125.344 109.149 124.222V94.8042C109.149 93.682 110.059 92.7722 111.181 92.7722H118.763C119.885 92.7722 120.795 93.682 120.795 94.8042V124.222C120.764 125.374 119.854 126.254 118.763 126.254Z" fill="#020001"/>
<path d="M38.425 126.254H30.8431C29.721 126.254 28.8112 125.344 28.8112 124.222V94.8042C28.8112 93.682 29.721 92.7722 30.8431 92.7722H38.425C39.5471 92.7722 40.4569 93.682 40.4569 94.8042V124.222C40.4266 125.374 39.5471 126.254 38.425 126.254Z" fill="#020001"/>
<path d="M32.1775 64.4765L21.5628 63.2027C20.1374 63.0208 19.2276 61.6257 19.6219 60.261L20.8956 55.8938C21.1686 54.984 21.9571 54.3168 22.8972 54.2258L26.5972 53.8922C27.416 53.8315 28.1136 54.4684 28.1136 55.2569V60.0487H33.1783L32.1775 64.4765Z" fill="#1E1B33"/>
<path d="M26.5063 53.9226L22.9276 54.2562C21.9875 54.3472 21.1686 55.0144 20.926 55.9242L19.6523 60.2914C19.258 61.6561 20.1678 63.0512 21.5932 63.2332L25.1719 63.6577L26.5063 53.9226Z" fill="#5D1BC4"/>
<path d="M117.822 64.4765L128.437 63.2027C129.862 63.0208 130.772 61.6257 130.378 60.261L129.104 55.8938C128.831 54.984 128.043 54.3168 127.103 54.2258L123.403 53.8922C122.584 53.8315 121.886 54.4684 121.886 55.2569V60.0487H116.822L117.822 64.4765Z" fill="#1E1B33"/>
<path d="M123.494 53.9226L127.072 54.2562C128.012 54.3472 128.831 55.0144 129.074 55.9242L130.348 60.2914C130.742 61.6561 129.832 63.0512 128.407 63.2332L124.828 63.6577L123.494 53.9226Z" fill="#5D1BC4"/>
<path d="M30.8431 114.335C30.8431 114.335 27.3857 111.636 26.5669 103.417C25.748 95.1983 25.5661 86.2517 25.839 84.2804C26.0816 82.3091 31.4193 66.0536 31.9955 62.3536C32.5717 58.6537 36.7569 35.6654 37.6668 32.7843C38.5766 29.9032 40.0626 25.4753 56.3182 25.4753C72.5738 25.4753 84.5835 25.4753 84.5835 25.4753L85.4023 113.728C85.372 113.668 35.0283 115.73 30.8431 114.335Z" fill="#5D1BC4"/>
<path d="M119.339 114.335C119.339 114.335 122.796 111.636 123.615 103.417C124.434 95.1983 124.616 86.2517 124.343 84.2804C124.07 82.3091 118.763 66.0536 118.186 62.3536C117.61 58.6537 113.425 35.6654 112.515 32.7843C111.605 29.9032 110.119 25.4753 93.8636 25.4753C77.6081 25.4753 65.5984 25.4753 65.5984 25.4753L64.7795 113.728C64.7795 113.668 115.154 115.73 119.339 114.335Z" fill="#5D1BC4"/>
<path d="M100.505 86.3427C104.145 86.0698 110.15 85.6148 113.273 85.4025C114.547 85.3116 115.699 84.6444 116.458 83.6132L118.55 80.7018C119.672 79.1247 119.915 77.0625 119.187 75.2428C118.399 73.3018 116.124 72.392 114.213 73.2715L101.233 79.1854C100.414 79.5493 99.8078 80.2165 99.5046 81.0657L98.5341 83.7345C97.9882 85.0689 99.08 86.464 100.505 86.3427Z" fill="#B3A6E6"/>
<path d="M50.0403 86.1303C46.401 85.8573 40.3962 85.4024 37.2724 85.1901C35.9987 85.0991 34.8462 84.4319 34.088 83.4008L31.9954 80.4894C30.8733 78.9123 30.6307 76.8501 31.3586 75.0304C32.1471 73.0894 34.4216 72.1796 36.3323 73.0591L49.3125 78.973C50.1313 79.3369 50.7379 80.0041 51.0411 80.8533L52.0116 83.5221C52.5272 84.8262 51.4657 86.2516 50.0403 86.1303Z" fill="#B3A6E6"/>
<path d="M75.2122 86.8885C86.2211 86.8885 99.4439 87.3738 105.024 86.9795C107.814 86.7672 110.392 86.5549 112.272 86.373C113.304 86.282 113.849 87.5861 113.031 88.2229C109.452 91.195 101.9 96.1687 91.7104 96.1687C77.1835 96.1687 63.5361 96.1687 58.1984 96.1687C50.2829 96.1687 42.1552 91.3467 37.7273 88.2229C36.7569 87.5557 37.3331 86.0394 38.4855 86.1607C41.5789 86.4943 46.0068 86.8885 50.3739 86.8885C58.2894 86.8885 75.2122 86.8885 75.2122 86.8885Z" fill="#1E1B33"/>
<path d="M41.3971 105.237L31.8136 104.812C30.8431 104.782 30.0242 105.51 29.9636 106.45L29.7816 109.028C29.6906 110.362 30.6914 111.515 32.0259 111.575L35.8168 111.788C37.3938 111.879 38.9102 111.242 39.9717 110.059L42.3069 107.42C43.0651 106.602 42.4889 105.297 41.3971 105.237Z" fill="#1E1B33"/>
<path d="M34.907 109.907C35.8449 109.907 36.6053 109.147 36.6053 108.209C36.6053 107.271 35.8449 106.51 34.907 106.51C33.969 106.51 33.2086 107.271 33.2086 108.209C33.2086 109.147 33.969 109.907 34.907 109.907Z" fill="#B3A6E6"/>
<path d="M108.967 105.237L118.55 104.812C119.521 104.782 120.34 105.51 120.4 106.45L120.582 109.028C120.673 110.362 119.672 111.515 118.338 111.575L114.547 111.788C112.97 111.879 111.454 111.242 110.392 110.059L108.057 107.42C107.329 106.602 107.875 105.297 108.967 105.237Z" fill="#1E1B33"/>
<path d="M115.457 109.907C116.395 109.907 117.155 109.147 117.155 108.209C117.155 107.271 116.395 106.51 115.457 106.51C114.519 106.51 113.759 107.271 113.759 108.209C113.759 109.147 114.519 109.907 115.457 109.907Z" fill="#B3A6E6"/>
<path d="M110.938 43.0046C110.483 41.0637 110.119 39.7899 109.846 38.9711C109.573 38.1826 108.845 37.667 107.996 37.667H88.0407H62.323H42.3675C41.5486 37.667 40.7905 38.1826 40.5175 38.9711C40.2446 39.7899 39.8503 41.0637 39.4257 43.0046C38.4249 47.2808 36.5446 63.2938 37.6061 64.6888C38.6675 66.0839 51.6477 66.8118 74.3327 66.8118C74.636 66.8118 74.9089 66.8118 75.1819 66.8118C75.4548 66.8118 75.7581 66.8118 76.031 66.8118C98.716 66.8118 111.696 66.0839 112.758 64.6888C113.819 63.2938 111.939 47.2808 110.938 43.0046Z" fill="#1E1B33"/>
<path d="M75.3336 92.6205C77.3268 92.6205 78.9426 91.0047 78.9426 89.0116C78.9426 87.0184 77.3268 85.4026 75.3336 85.4026C73.3404 85.4026 71.7246 87.0184 71.7246 89.0116C71.7246 91.0047 73.3404 92.6205 75.3336 92.6205Z" fill="#1E1B33"/>
<path d="M29.1447 112.728C28.2956 112.667 27.78 113.668 28.3259 114.335C29.2964 115.518 30.9947 116.882 33.8758 116.882C38.9709 116.882 116.063 116.882 118.186 116.882C119.49 116.882 120.522 115.487 121.128 114.396C121.431 113.85 121.037 113.182 120.4 113.182H112.818C111.15 113.182 109.543 112.637 108.209 111.636L101.021 106.177C99.6866 105.176 98.0792 104.63 96.4112 104.63H52.5273C50.6773 104.63 48.888 105.297 47.5232 106.51L42.0339 111.333C40.5176 112.667 38.5159 113.334 36.5143 113.213L29.1447 112.728Z" fill="#1E1B33"/>
<path d="M88.5867 108.239H61.6255C60.655 108.239 59.8969 107.451 59.8969 106.51V101.719C59.8969 100.748 60.6854 99.99 61.6255 99.99H88.5867C89.5572 99.99 90.3154 100.779 90.3154 101.719V106.51C90.3154 107.451 89.5269 108.239 88.5867 108.239Z" fill="#FDCF0F"/>
<path d="M32.9053 77.7296C32.9053 77.7296 32.6021 74.2116 35.5438 74.5149" stroke="#DBD4FC" stroke-width="2.5434" stroke-miterlimit="10" stroke-linecap="round" stroke-linejoin="round"/>
<path d="M117.853 77.7296C117.853 77.7296 118.156 74.2116 115.214 74.5149" stroke="#DBD4FC" stroke-width="2.5434" stroke-miterlimit="10" stroke-linecap="round" stroke-linejoin="round"/>
<path d="M101.233 31.9352H49.4642C48.7666 31.9352 48.3724 31.086 48.8576 30.5704L51.86 27.2647C52.2846 26.7795 52.8912 26.5369 53.528 26.5369H97.1997C97.8366 26.5369 98.4431 26.8098 98.8677 27.2647L101.87 30.5704C102.295 31.086 101.931 31.9352 101.233 31.9352Z" fill="#7E5DDA"/>
<path d="M44.2782 30.7523H46.7953C47.1289 30.7523 47.4019 30.5097 47.4322 30.2064C47.5839 29.2359 47.9175 27.3556 48.615 26.8097C49.0396 26.4761 49.9494 26.5671 50.3133 26.6277C50.4043 26.6277 50.5256 26.6277 50.6166 26.5974L50.8896 26.5064C51.1928 26.4154 51.3445 26.1122 51.3141 25.8089C51.2232 24.9294 50.9805 23.2007 50.6469 22.8671C50.2223 22.4425 48.7363 22.4425 47.5839 22.7155C46.4314 22.9884 44.5814 24.0802 44.0659 25.0204C43.5503 25.9302 43.5503 28.8416 43.5503 30.1154C43.6109 30.4793 43.9142 30.7523 44.2782 30.7523Z" fill="#1E1B33"/>
<path d="M49.7068 24.4138C49.3732 24.2621 47.5839 24.8384 47.5839 26.658C47.5839 27.0826 47.5839 28.326 47.5839 29.3572C47.7658 28.3867 48.0994 27.2342 48.615 26.84C49.0396 26.5064 49.9494 26.5973 50.3133 26.658C50.4043 26.658 50.5256 26.658 50.6166 26.6277L50.7076 26.5973C50.6166 25.5662 49.9797 24.5654 49.7068 24.4138Z" fill="#323150"/>
<path d="M106.146 30.7523H103.629C103.296 30.7523 103.023 30.5097 102.992 30.2064C102.841 29.2359 102.507 27.3556 101.81 26.8097C101.385 26.4761 100.475 26.5671 100.111 26.6277C100.02 26.6277 99.8989 26.6277 99.8079 26.5974L99.535 26.5064C99.2317 26.4154 99.08 26.1122 99.1104 25.8089C99.2014 24.9294 99.444 23.2007 99.7776 22.8671C100.202 22.4425 101.688 22.4425 102.841 22.7155C103.993 22.9884 105.843 24.0802 106.359 25.0204C106.874 25.9302 106.874 28.8416 106.874 30.1154C106.814 30.4793 106.51 30.7523 106.146 30.7523Z" fill="#1E1B33"/>
<path d="M100.718 24.4138C101.051 24.2621 102.841 24.8384 102.841 26.658C102.841 27.0826 102.841 28.326 102.841 29.3572C102.659 28.3867 102.325 27.2342 101.81 26.84C101.385 26.5064 100.475 26.5973 100.111 26.658C100.02 26.658 99.8989 26.658 99.8079 26.6277L99.7169 26.5973C99.8079 25.5662 100.445 24.5654 100.718 24.4138Z" fill="#323150"/>
<path d="M106.51 70.6027H46.1888C45.7945 70.6027 45.4609 70.2691 45.4609 69.8748C45.4609 69.4806 45.7945 69.147 46.1888 69.147H106.51C106.905 69.147 107.238 69.4806 107.238 69.8748C107.238 70.2691 106.905 70.6027 106.51 70.6027Z" fill="#7E5DDA"/>
<path d="M95.2588 98.9286H54.8625C54.4985 98.9286 54.2256 98.6556 54.2256 98.2917C54.2256 97.9277 54.4985 97.6548 54.8625 97.6548H95.2588C95.6227 97.6548 95.8956 97.9277 95.8956 98.2917C95.8956 98.6556 95.6227 98.9286 95.2588 98.9286Z" fill="#7E5DDA"/>
<path d="M127.527 55.5298L128.498 58.8052" stroke="#7E5DDA" stroke-width="2.18" stroke-miterlimit="10" stroke-linecap="round" stroke-linejoin="round"/>
<path d="M100.536 90.8917H50.2527C49.7675 90.8917 49.3429 90.4974 49.3429 89.9818C49.3429 89.4966 49.7372 89.072 50.2527 89.072H100.536C101.021 89.072 101.446 89.4663 101.446 89.9818C101.446 90.4974 101.021 90.8917 100.536 90.8917Z" fill="#020001"/>
<path d="M95.5014 93.9246H55.2567C54.7715 93.9246 54.3469 93.5304 54.3469 93.0148C54.3469 92.5296 54.7412 92.105 55.2567 92.105H95.5014C95.9866 92.105 96.4112 92.4992 96.4112 93.0148C96.4112 93.5 95.9866 93.9246 95.5014 93.9246Z" fill="#020001"/>
<path d="M68.328 104.145C68.328 103.599 67.8731 103.265 67.2362 103.265C66.6297 103.265 65.9928 103.69 65.9928 104.691C65.9928 105.449 66.4477 105.995 67.2362 105.995C67.6608 105.995 68.1461 105.752 68.2674 105.57C68.2674 105.57 68.1764 105.237 67.9641 105.237C67.8428 105.237 67.7518 105.297 67.6608 105.328C67.5698 105.358 67.4485 105.419 67.2969 105.419C67.0846 105.419 66.6903 105.328 66.6903 104.873C66.6903 104.873 66.8723 104.933 67.2666 104.933C68.1157 104.903 68.328 104.539 68.328 104.145ZM67.2666 103.842C67.5698 103.842 67.6911 103.993 67.6911 104.145C67.6911 104.327 67.5395 104.418 67.2362 104.418C66.8116 104.418 66.66 104.357 66.66 104.357C66.6903 104.115 66.9026 103.842 67.2666 103.842Z" fill="#5D3EBC"/>
<path d="M69.9049 105.388C69.6017 105.388 69.45 105.146 69.4197 105.024C69.3894 104.903 69.359 104.751 69.359 104.6V103.811H69.5713C69.7533 103.811 69.8746 103.751 69.9656 103.66C70.0566 103.569 70.1172 103.417 70.1172 103.265H69.359V102.901C69.359 102.78 69.359 102.689 69.359 102.628C69.359 102.568 69.359 102.507 69.359 102.477C69.359 102.446 69.359 102.386 69.359 102.355C69.1164 102.355 68.9648 102.416 68.8435 102.507C68.7222 102.598 68.6615 102.78 68.6615 102.992V104.782C68.6615 105.51 68.9951 105.995 69.6623 105.995C69.9959 105.995 70.2385 105.813 70.2385 105.54C70.2385 105.449 70.2385 105.388 70.2082 105.358C70.2082 105.358 70.0869 105.388 69.9049 105.388Z" fill="#5D3EBC"/>
<path d="M71.573 105.419C71.4213 105.419 71.3303 105.297 71.3303 105.146V103.872C71.3303 103.751 71.3303 103.66 71.3303 103.599C71.3303 103.538 71.3303 103.478 71.3303 103.447C71.3303 103.417 71.3303 103.356 71.3303 103.326C71.0877 103.326 70.9058 103.387 70.8148 103.478C70.6935 103.569 70.6328 103.751 70.6328 103.963V105.267C70.6328 105.722 70.9361 105.995 71.3 105.965C71.5426 105.965 71.7549 105.843 71.7549 105.601C71.7549 105.51 71.7246 105.419 71.7246 105.419C71.6943 105.419 71.664 105.419 71.573 105.419Z" fill="#5D3EBC"/>
<path d="M70.8147 103.053C70.8754 103.083 70.936 103.083 70.9967 103.083C71.1483 103.083 71.2393 103.023 71.3303 102.871C71.3606 102.81 71.3909 102.75 71.3909 102.659C71.3909 102.598 71.3909 102.538 71.3303 102.477C71.2999 102.416 71.2393 102.386 71.1786 102.356C71.118 102.325 71.0573 102.295 70.9967 102.295C70.936 102.295 70.8754 102.325 70.8147 102.356C70.7541 102.386 70.6934 102.447 70.6631 102.507C70.6327 102.568 70.6024 102.629 70.6024 102.72C70.6024 102.78 70.6024 102.841 70.6631 102.901C70.7237 102.992 70.7541 103.023 70.8147 103.053Z" fill="#5D3EBC"/>
<path d="M77.2745 103.053C77.3352 103.083 77.3958 103.083 77.4565 103.083C77.6081 103.083 77.6991 103.023 77.7901 102.871C77.8204 102.81 77.8508 102.75 77.8508 102.659C77.8508 102.598 77.8508 102.538 77.7901 102.477C77.7598 102.416 77.6991 102.386 77.6385 102.356C77.5778 102.325 77.5172 102.295 77.4565 102.295C77.3958 102.295 77.3352 102.325 77.2745 102.356C77.2139 102.386 77.1532 102.447 77.1229 102.507C77.0926 102.568 77.0623 102.629 77.0623 102.72C77.0623 102.78 77.0623 102.841 77.1229 102.901C77.1836 102.992 77.2139 103.023 77.2745 103.053Z" fill="#5D3EBC"/>
<path d="M78.3057 103.053C78.3663 103.083 78.427 103.083 78.4876 103.083C78.6393 103.083 78.7303 103.023 78.8212 102.871C78.8516 102.81 78.8819 102.75 78.8819 102.659C78.8819 102.598 78.8819 102.538 78.8212 102.477C78.7909 102.416 78.7303 102.386 78.6696 102.356C78.6089 102.325 78.5483 102.295 78.4876 102.295C78.427 102.295 78.3663 102.325 78.3057 102.356C78.245 102.386 78.1844 102.447 78.154 102.507C78.1237 102.568 78.0934 102.629 78.0934 102.72C78.0934 102.78 78.0934 102.841 78.154 102.901C78.2147 102.992 78.245 103.023 78.3057 103.053Z" fill="#5D3EBC"/>
<path d="M82.4303 103.053C82.491 103.083 82.5516 103.083 82.6123 103.083C82.7639 103.083 82.8549 103.023 82.9459 102.871C82.9762 102.81 83.0065 102.75 83.0065 102.659C83.0065 102.598 83.0065 102.538 82.9459 102.477C82.9156 102.416 82.8549 102.386 82.7942 102.356C82.7336 102.325 82.6729 102.295 82.6123 102.295C82.5516 102.295 82.491 102.325 82.4303 102.356C82.3697 102.386 82.309 102.447 82.2787 102.507C82.2483 102.568 82.218 102.629 82.218 102.72C82.218 102.78 82.218 102.841 82.2787 102.901C82.309 102.992 82.3697 103.023 82.4303 103.053Z" fill="#5D3EBC"/>
<path d="M83.4614 103.053C83.5221 103.083 83.5827 103.083 83.6434 103.083C83.795 103.083 83.886 103.023 83.977 102.871C84.0073 102.81 84.0377 102.75 84.0377 102.659C84.0377 102.598 84.0377 102.538 83.977 102.477C83.9467 102.416 83.886 102.386 83.8254 102.356C83.7647 102.325 83.7041 102.295 83.6434 102.295C83.5827 102.295 83.5221 102.325 83.4614 102.356C83.4008 102.386 83.3401 102.447 83.3098 102.507C83.2795 102.568 83.2491 102.629 83.2491 102.72C83.2491 102.78 83.2491 102.841 83.3098 102.901C83.3401 102.992 83.4008 103.023 83.4614 103.053Z" fill="#5D3EBC"/>
<path d="M73.2713 103.326C73.1197 103.326 72.968 103.356 72.8467 103.387C72.6951 103.417 72.5738 103.478 72.4525 103.569C72.3312 103.66 72.2402 103.781 72.1795 103.933C72.1189 104.084 72.0582 104.297 72.0582 104.539V105.267C72.0582 105.479 72.0886 105.692 72.2099 105.813C72.3615 105.934 72.5435 105.934 72.7558 105.934C72.7558 105.904 72.7558 105.843 72.7558 105.813C72.7558 105.783 72.7558 105.722 72.7558 105.661C72.7558 105.601 72.7558 105.51 72.7558 105.388V104.448C72.7558 104.236 72.7861 103.933 73.1803 103.902C73.3926 103.872 73.6049 103.811 73.6049 103.569C73.6049 103.508 73.6049 103.417 73.5746 103.356H73.2713V103.326Z" fill="#5D3EBC"/>
<path d="M64.446 103.265C63.6575 103.265 63.2329 103.842 63.2329 104.509C63.2329 105.146 63.6272 105.722 64.3247 105.722C64.6886 105.722 64.9009 105.57 64.9616 105.51V105.813C64.9616 106.177 64.8099 106.419 64.446 106.419C64.264 106.419 64.1427 106.359 64.0214 106.328C63.9001 106.268 63.8395 106.207 63.7182 106.207C63.4452 106.207 63.3542 106.541 63.3845 106.541C63.5968 106.814 64.0518 106.996 64.446 106.996C65.2345 106.996 65.6591 106.541 65.6591 105.661C65.6591 105.661 65.6591 104.751 65.6591 104.6C65.6288 103.811 65.2649 103.265 64.446 103.265ZM64.446 105.115C64.1427 105.115 63.9304 104.933 63.9304 104.509C63.9304 104.054 64.1731 103.842 64.446 103.842C64.7493 103.842 64.9616 104.024 64.9616 104.478C64.9313 104.964 64.719 105.115 64.446 105.115Z" fill="#5D3EBC"/>
<path d="M75.182 105.964C74.5148 105.964 73.9689 105.419 73.9689 104.66V102.477H74.1812C74.4238 102.477 74.6058 102.628 74.6058 102.932V103.69C74.7271 103.508 74.9697 103.296 75.3033 103.296C75.9705 103.296 76.4557 103.842 76.4557 104.6C76.4861 105.328 75.9705 105.964 75.182 105.964ZM75.182 103.842C74.8484 103.842 74.6058 104.175 74.6058 104.569C74.6058 105.176 74.8484 105.419 75.2426 105.419C75.5762 105.419 75.7885 105.115 75.7885 104.691C75.8189 104.054 75.5762 103.842 75.182 103.842Z" fill="#5D3EBC"/>
<path d="M76.85 104.752V103.781C76.85 103.478 77.0016 103.326 77.3959 103.326H77.5172V104.782C77.5172 105.237 77.6991 105.419 77.9721 105.419C78.2754 105.419 78.4876 105.237 78.4876 104.752V103.811C78.4876 103.508 78.6393 103.356 79.0335 103.356H79.1549V104.843C79.1549 105.601 78.6393 106.025 78.0024 106.025C77.2442 105.965 76.85 105.54 76.85 104.752Z" fill="#5D3EBC"/>
<path d="M81.9753 104.752V103.781C81.9753 103.478 82.127 103.326 82.5212 103.326H82.6426V104.782C82.6426 105.237 82.8245 105.419 83.0975 105.419C83.4007 105.419 83.613 105.237 83.613 104.752V103.811C83.613 103.508 83.7647 103.356 84.1589 103.356H84.2802V104.843C84.2802 105.601 83.7647 106.025 83.1278 106.025C82.3696 105.965 81.9753 105.54 81.9753 104.752Z" fill="#5D3EBC"/>
<path d="M79.9434 106.753C79.7007 106.753 79.4884 106.602 79.4884 106.359V106.238L79.8524 106.207C80.095 106.207 80.1556 106.086 80.3073 105.722C79.9737 105.206 79.4884 103.933 79.3975 103.326H79.7311C79.913 103.326 80.0647 103.447 80.095 103.629C80.186 104.115 80.3679 104.661 80.6106 105.115C80.8229 104.63 81.0655 103.842 81.1261 103.326H81.3991C81.6114 103.326 81.7024 103.417 81.7024 103.629C81.7024 103.902 81.2474 105.085 81.1261 105.358C80.6409 106.48 80.3983 106.753 79.9434 106.753Z" fill="#5D3EBC"/>
<path d="M85.281 102.871V104.418C85.5237 104.084 85.7663 103.751 86.0695 103.478C86.2212 103.326 86.3728 103.296 86.5851 103.296H86.949V103.326C86.7671 103.478 86.1605 104.145 85.8876 104.509C86.0999 104.751 86.2818 105.024 86.5245 105.267C86.7671 105.51 86.8581 105.54 87.0097 105.601C86.949 105.813 86.8277 105.904 86.5851 105.904C86.4335 105.904 86.2818 105.843 86.1605 105.722C85.8269 105.388 85.554 104.994 85.2507 104.63V105.904H85.0384C84.7351 105.904 84.5835 105.752 84.5835 105.449V102.447H84.7958C85.1597 102.447 85.281 102.629 85.281 102.871Z" fill="#5D3EBC"/>
</g>
<defs>
<clipPath id="clip0">
<rect width="150" height="150" fill="white" transform="translate(0 0.000244141)"/>
</clipPath>
</defs>
</svg>
