<svg width="154" height="150" viewBox="0 0 154 150" fill="none" xmlns="http://www.w3.org/2000/svg">
<g clip-path="url(#clip0)">
<path d="M131.9 128.587C160.45 100.037 160.45 53.749 131.901 25.1997C103.351 -3.34968 57.0635 -3.34949 28.5139 25.2001C-0.0357093 53.7497 -0.0359116 100.038 28.5135 128.587C57.0628 157.136 103.351 157.136 131.9 128.587Z" fill="#F0EFFF"/>
<path d="M100.884 84.6649L112.011 84.6649L112.011 60.3767L100.884 60.3767L100.884 84.6649Z" fill="white"/>
<path d="M100.884 57.6703L112.011 57.6703L112.011 47.1449L100.884 47.1449L100.884 57.6703Z" fill="white"/>
<path d="M87.3513 84.665L98.4782 84.665L98.4782 60.3768L87.3512 60.3768L87.3513 84.665Z" fill="white"/>
<path d="M87.3513 57.6704L98.4782 57.6704L98.4782 47.145L87.3513 47.145L87.3513 57.6704Z" fill="white"/>
<path d="M135.132 84.6649L146.259 84.6649L146.259 60.3767L135.132 60.3767L135.132 84.6649Z" fill="white"/>
<path d="M135.132 57.6703L146.259 57.6703L146.259 47.1449L135.132 47.1449L135.132 57.6703Z" fill="white"/>
<path d="M121.6 84.6649L132.726 84.6649L132.726 60.3767L121.6 60.3767L121.6 84.6649Z" fill="white"/>
<path d="M121.6 57.6704L132.727 57.6703L132.727 47.145L121.6 47.145L121.6 57.6704Z" fill="white"/>
<path d="M24.4997 84.6648L35.6266 84.6648L35.6266 60.3766L24.4997 60.3766L24.4997 84.6648Z" fill="white"/>
<path d="M24.4996 57.6702L35.6265 57.6702L35.6265 47.1448L24.4996 47.1448L24.4996 57.6702Z" fill="white"/>
<path d="M10.9672 84.6648L22.0941 84.6648L22.0941 60.3766L10.9672 60.3766L10.9672 84.6648Z" fill="white"/>
<path d="M10.9671 57.6702L22.094 57.6702L22.094 47.1448L10.9671 47.1448L10.9671 57.6702Z" fill="white"/>
<path d="M55.6087 17.0383L42.7316 27.728C41.6433 28.6312 40.337 27.5375 40.5301 25.8844L43.3373 1.82793C43.5303 0.174859 45.0533 -0.589031 45.9045 0.540824L55.9744 13.9076C56.6392 14.7907 56.4596 16.3319 55.6087 17.0383Z" fill="#C06700"/>
<path d="M43.1732 28.1982L46.4433 0.172852L44.9718 0.00115312L41.7017 28.0265L43.1732 28.1982Z" fill="#C06700"/>
<path d="M57.1043 17.2127L44.2271 27.9024C43.1388 28.8056 41.8325 27.7119 42.0256 26.0588L44.8328 2.00235C45.0259 0.349275 46.5489 -0.414616 47.4 0.715239L57.4699 14.082C58.1351 14.9652 57.9551 16.5064 57.1043 17.2127Z" fill="#EB920D"/>
<path d="M56.9042 17.0772L44.3543 27.4364C43.3162 28.3064 42.1684 27.6512 42.3541 26.0611L45.0754 2.14586C45.261 0.555757 46.7284 0.165502 47.5383 1.25093L57.1237 14.0977C57.7572 14.9463 57.716 16.3967 56.9042 17.0772Z" fill="#FFD6AC"/>
<path d="M43.6715 26.9477C43.9771 27.0039 44.3098 26.9279 44.6221 26.6814L56.5282 17.2779C57.3148 16.6566 57.4743 15.2921 56.8517 14.5065L48.9149 4.48834L48.9286 4.36273L48.7084 4.22785L47.4303 2.61441C46.9569 2.01673 46.2659 2.01129 45.7478 2.41273L45.6957 2.38077C45.6957 2.38077 43.3708 2.01705 43.8588 4.11087C44.1321 5.28228 44.7662 6.87079 43.8879 7.94727C43.0096 9.02374 42.472 9.45619 43.156 10.3856C43.5047 10.8593 43.8182 11.7613 43.653 12.8963C43.4877 14.0312 43.139 14.6059 42.5577 16.6115C41.9763 18.6171 41.182 18.3221 42.2438 18.8546C43.3056 19.3871 41.3009 20.7157 42.269 21.3409C43.2372 21.9664 41.1024 24.0021 41.5604 24.5422C42.0185 25.0824 41.5994 26.5127 42.628 27.0998C42.8789 27.2427 43.2515 27.1577 43.6715 26.9477Z" fill="#11983C"/>
<path d="M42.628 27.0995C42.8789 27.2426 43.2516 27.1576 43.6716 26.9476C43.9771 27.0039 44.3098 26.9278 44.6221 26.6814L56.5282 17.2779C57.0412 16.8729 57.2851 16.1525 57.2221 15.4819C57.17 15.3742 57.1077 15.2719 57.0336 15.1783L49.0968 5.15981L49.1105 5.0342L48.8903 4.89932L47.6121 3.28589C47.1388 2.6882 46.4478 2.68276 45.9297 3.08421L45.8776 3.05224C45.8776 3.05224 43.5527 2.68852 44.0407 4.78234C44.314 5.95375 44.9481 7.54226 44.0698 8.61874C43.5047 9.31135 43.0812 9.73741 43.033 10.2005C43.0687 10.26 43.1093 10.3214 43.1563 10.385C43.3618 10.6643 43.5546 11.0932 43.6447 11.6305C43.8371 12.1262 43.9477 12.7923 43.8349 13.5677C43.6696 14.703 43.7447 15.3812 43.1634 17.3869C42.9348 18.1754 42.2499 18.5033 42.0811 18.7708C42.13 18.7964 42.1834 18.8235 42.2438 18.8539C42.5896 19.0275 42.6095 19.2857 42.5132 19.5763C43.1052 19.9649 42.3995 20.6914 42.2189 21.3032C42.2352 21.3156 42.2505 21.3281 42.2691 21.3402C42.5164 21.5 42.5606 21.7525 42.4976 22.0482C43.1937 22.5954 41.9213 24.0333 41.7075 24.8177C41.7573 24.9638 41.7868 25.1335 41.812 25.315C41.9718 25.5934 41.9897 26.0227 42.0591 26.4586C42.1716 26.7121 42.3445 26.9377 42.628 27.0995Z" fill="#008C29"/>
<path d="M44.4061 25.2585L47.1494 3.37128L45.0165 3.47292L44.6483 5.79688C44.6621 5.79847 44.882 5.9081 44.8957 5.91034C45.0405 5.93176 44.9772 5.87263 45.1102 5.95349C45.6452 6.27854 45.8156 6.97563 45.4909 7.511C45.2355 7.93162 44.7503 8.12562 44.2945 8.03198L44.1328 9.05316C44.1328 9.05316 43.9928 12.7732 43.9778 12.9567C43.9688 13.0669 43.6614 14.5286 43.4178 15.6766C43.4731 15.6949 43.5274 15.7188 43.5795 15.7505C43.9468 15.9736 44.0638 16.452 43.8407 16.8196C43.6837 17.0778 43.4005 17.2118 43.1186 17.1913L42.9866 21.4103L42.7667 22.5469C42.7824 22.5408 42.9981 22.6651 43.0141 22.6603C43.1918 22.6053 43.1909 22.4935 43.3622 22.5974C43.6802 22.7904 43.7812 23.2046 43.5882 23.5223C43.3951 23.84 43.1161 23.9692 42.7981 23.7761C42.7568 23.7512 42.5846 23.6943 42.5507 23.6626L42.3004 24.9568L42.6152 26.1458L42.8626 26.2592L44.4061 25.2585ZM46.0716 4.09394C46.1534 3.91815 46.3152 3.81524 46.4328 3.86414C46.5501 3.91304 46.5788 4.09522 46.497 4.27101C46.4149 4.4468 46.2535 4.54972 46.1358 4.50082C46.0182 4.45192 45.9895 4.26973 46.0716 4.09394ZM44.6023 12.086C44.7295 11.8767 44.9734 11.792 45.1466 11.8975C45.3202 12.0029 45.3576 12.258 45.2304 12.4677C45.1032 12.6773 44.8593 12.7617 44.6861 12.6562C44.5128 12.5508 44.4751 12.2957 44.6023 12.086ZM43.795 19.1682C43.8771 18.9924 44.0385 18.8895 44.1561 18.9384C44.2734 18.9873 44.3022 19.1694 44.2204 19.3452C44.1382 19.521 43.9768 19.6239 43.8592 19.575C43.7416 19.5261 43.7128 19.3439 43.795 19.1682ZM43.958 21.5059C43.997 21.4221 44.074 21.3732 44.1299 21.3965C44.1859 21.4199 44.1996 21.5065 44.1606 21.5902C44.1216 21.674 44.0446 21.7229 43.9886 21.6995C43.9327 21.6762 43.919 21.5896 43.958 21.5059Z" fill="#DE7D00"/>
<path d="M44.6535 25.372L47.3968 3.48476L45.264 3.5864L44.8958 5.91036C45.0546 5.92826 45.2122 5.97876 45.3576 6.06697C45.8927 6.39202 46.063 7.08911 45.7383 7.62448C45.4829 8.0451 44.9977 8.2391 44.542 8.14546L44.3802 9.16664C44.3802 9.16664 44.2403 12.8867 44.2252 13.0702C44.2163 13.1804 43.9088 14.642 43.6653 15.7901C43.7205 15.8083 43.7749 15.8323 43.827 15.8639C44.1942 16.087 44.3112 16.5655 44.0881 16.9331C43.9312 17.1913 43.648 17.3252 43.3661 17.3048L43.2341 21.5238L43.0142 22.6603C43.2031 22.5862 43.423 22.5974 43.6096 22.7108C43.9277 22.9039 44.0287 23.3181 43.8356 23.6358C43.6426 23.9535 43.2283 24.0548 42.9106 23.8618C42.8694 23.8369 42.832 23.8081 42.7985 23.7761L42.5482 25.0703L42.863 26.2593L44.6535 25.372ZM46.3187 4.20742C46.4006 4.03163 46.5623 3.92872 46.6799 3.97762C46.7972 4.02652 46.826 4.2087 46.7441 4.38449C46.662 4.56028 46.5006 4.6632 46.383 4.6143C46.2657 4.5654 46.2369 4.38321 46.3187 4.20742ZM44.8498 12.1995C44.977 11.9902 45.2208 11.9055 45.3941 12.0109C45.5676 12.1164 45.605 12.3715 45.4778 12.5811C45.3506 12.7905 45.1067 12.8752 44.9335 12.7697C44.76 12.6642 44.7226 12.4092 44.8498 12.1995ZM44.0424 19.2813C44.1246 19.1055 44.286 19.0026 44.4036 19.0515C44.5209 19.1004 44.5496 19.2826 44.4678 19.4584C44.3857 19.6342 44.2243 19.7371 44.1066 19.6882C43.989 19.6393 43.9603 19.4571 44.0424 19.2813ZM44.2054 21.619C44.2444 21.5353 44.3214 21.4864 44.3774 21.5097C44.4333 21.533 44.447 21.6197 44.4081 21.7034C44.3691 21.7871 44.292 21.836 44.2361 21.8127C44.1802 21.7897 44.1664 21.7028 44.2054 21.619Z" fill="#F9CC60"/>
<path d="M57.843 17.347L45.9365 26.7505C44.9303 27.5451 43.7113 26.5696 43.882 25.1061L46.367 3.81044C46.5377 2.34722 47.9488 1.67826 48.7447 2.68314L58.1658 14.5752C58.789 15.3612 58.6299 16.7256 57.843 17.347Z" fill="#B32E2B"/>
<path d="M46.6043 22.4925C46.9807 21.9469 46.8436 21.1995 46.298 20.8231C45.7524 20.4467 45.005 20.5838 44.6286 21.1294C44.2521 21.6749 44.3893 22.4224 44.9349 22.7988C45.4804 23.1752 46.2279 23.0381 46.6043 22.4925Z" fill="#E35552"/>
<path d="M45.6252 10.6186C46.2814 10.7113 46.7385 11.3183 46.6458 11.9748C46.5531 12.6309 45.9458 13.088 45.2896 12.9953" fill="#E35552"/>
<path d="M46.0425 17.8211C46.2039 17.5871 46.1451 17.2664 45.9111 17.1049C45.677 16.9434 45.3563 17.0022 45.1948 17.2363C45.0333 17.4704 45.0922 17.791 45.3262 17.9525C45.5603 18.114 45.881 18.0552 46.0425 17.8211Z" fill="#E35552"/>
<path d="M47.4366 8.55867C47.5981 8.3246 47.5393 8.00393 47.3052 7.84244C47.0711 7.68094 46.7505 7.73977 46.589 7.97384C46.4275 8.20791 46.4863 8.52858 46.7204 8.69007C46.9544 8.85157 47.2751 8.79274 47.4366 8.55867Z" fill="#E35552"/>
<path d="M59.4509 17.7056L46.5738 28.3953C45.4855 29.2985 44.1792 28.2048 44.3722 26.5517L47.1794 2.49521C47.3725 0.842134 48.8955 0.0782433 49.7466 1.2081L59.8166 14.5749C60.4817 15.458 60.3017 16.9992 59.4509 17.7056Z" fill="#EB920D"/>
<path d="M47.0155 28.8658L50.2856 0.840385L48.814 0.668687L45.544 28.6941L47.0155 28.8658Z" fill="#EB920D"/>
<path d="M60.9465 17.88L48.0693 28.5697C46.981 29.4729 45.6747 28.3792 45.8678 26.7261L48.675 2.66962C48.868 1.01655 50.391 0.252659 51.2422 1.38251L61.3121 14.7493C61.9772 15.6324 61.7973 17.1736 60.9465 17.88Z" fill="#CF8520"/>
<path d="M60.7642 17.5303L48.1968 28.1037C47.1586 28.9737 46.0109 28.3185 46.1966 26.7283L48.9178 2.81314C49.1035 1.22303 50.4565 0.650915 51.2664 1.73666L60.9662 14.7653C61.5997 15.6136 61.576 16.8502 60.7642 17.5303Z" fill="#FFD6AC"/>
<path d="M52.8593 7.14349C53.1024 6.74323 53.0852 6.28861 52.8208 6.12807C52.5565 5.96753 52.1452 6.16187 51.9021 6.56213C51.659 6.96239 51.6762 7.41702 51.9405 7.57756C52.2048 7.73809 52.6162 7.54376 52.8593 7.14349Z" fill="#F7C8A0"/>
<path d="M54.1816 12.7954C54.3009 12.5989 54.2691 12.3616 54.1105 12.2653C53.9519 12.169 53.7267 12.2502 53.6074 12.4466C53.4881 12.643 53.5199 12.8804 53.6785 12.9767C53.837 13.073 54.0623 12.9918 54.1816 12.7954Z" fill="#F7C8A0"/>
<path d="M50.5241 10.649C50.6434 10.4525 50.6116 10.2152 50.453 10.1189C50.2945 10.0226 50.0692 10.1038 49.9499 10.3002C49.8306 10.4967 49.8624 10.734 50.021 10.8303C50.1796 10.9266 50.4048 10.8454 50.5241 10.649Z" fill="#F7C8A0"/>
<path d="M54.8229 9.36592C54.9422 9.16949 54.9104 8.93217 54.7518 8.83587C54.5932 8.73956 54.368 8.82073 54.2487 9.01717C54.1294 9.21361 54.1612 9.45092 54.3198 9.54722C54.4783 9.64353 54.7036 9.56236 54.8229 9.36592Z" fill="#F7C8A0"/>
<path d="M57.9237 16.5282C58.1164 16.211 58.1318 15.8682 57.9582 15.7628C57.7845 15.6573 57.4875 15.829 57.2948 16.1463C57.1021 16.4636 57.0867 16.8063 57.2603 16.9118C57.434 17.0172 57.731 16.8455 57.9237 16.5282Z" fill="#F7C8A0"/>
<path d="M50.8448 20.4477C51.0054 20.1834 51.007 19.891 50.8484 19.7947C50.6898 19.6984 50.4311 19.8346 50.2706 20.099C50.1101 20.3633 50.1085 20.6556 50.267 20.7519C50.4256 20.8482 50.6843 20.712 50.8448 20.4477Z" fill="#F7C8A0"/>
<path d="M59.9374 16.6654C60.098 16.4011 60.0996 16.1087 59.941 16.0124C59.7824 15.9161 59.5238 16.0523 59.3632 16.3167C59.2027 16.581 59.2011 16.8733 59.3597 16.9696C59.5182 17.0659 59.7769 16.9297 59.9374 16.6654Z" fill="#F7C8A0"/>
<path d="M54.2196 21.0557C54.3802 20.7914 54.3818 20.499 54.2232 20.4027C54.0646 20.3064 53.806 20.4426 53.6454 20.707C53.4849 20.9713 53.4833 21.2636 53.6418 21.3599C53.8004 21.4563 54.0591 21.32 54.2196 21.0557Z" fill="#F7C8A0"/>
<path d="M51.043 17.7786C51.1348 17.6276 51.1417 17.4642 51.0586 17.4137C50.9755 17.3633 50.8337 17.4448 50.742 17.5958C50.6503 17.7468 50.6433 17.9102 50.7264 17.9607C50.8096 18.0111 50.9513 17.9296 51.043 17.7786Z" fill="#F7C8A0"/>
<path d="M56.6456 13.3931C56.7374 13.2421 56.7443 13.0787 56.6612 13.0282C56.5781 12.9777 56.4363 13.0592 56.3446 13.2103C56.2529 13.3613 56.2459 13.5246 56.329 13.5751C56.4122 13.6256 56.5539 13.5441 56.6456 13.3931Z" fill="#F7C8A0"/>
<path d="M51.9375 14.2405C52.0293 14.0895 52.0362 13.9261 51.9531 13.8756C51.87 13.8252 51.7282 13.9067 51.6365 14.0577C51.5448 14.2087 51.5378 14.3721 51.6209 14.4226C51.7041 14.473 51.8458 14.3915 51.9375 14.2405Z" fill="#F7C8A0"/>
<path d="M51.1508 23.7971C51.2425 23.6461 51.2495 23.4827 51.1663 23.4322C51.0832 23.3817 50.9415 23.4632 50.8497 23.6143C50.758 23.7653 50.751 23.9286 50.8342 23.9791C50.9173 24.0296 51.0591 23.9481 51.1508 23.7971Z" fill="#F7C8A0"/>
<path d="M51.1076 4.26373C51.1994 4.1127 51.2063 3.94934 51.1232 3.89885C51.0401 3.84837 50.8983 3.92987 50.8066 4.08089C50.7149 4.23191 50.7079 4.39527 50.791 4.44576C50.8742 4.49625 51.0159 4.41475 51.1076 4.26373Z" fill="#F7C8A0"/>
<path d="M49.7558 15.2745C49.8475 15.1235 49.8544 14.9601 49.7713 14.9096C49.6882 14.8591 49.5464 14.9406 49.4547 15.0916C49.363 15.2427 49.356 15.406 49.4392 15.4565C49.5223 15.507 49.664 15.4255 49.7558 15.2745Z" fill="#F7C8A0"/>
<path d="M47.8873 26.458C47.979 26.307 47.986 26.1437 47.9028 26.0932C47.8197 26.0427 47.678 26.1242 47.5862 26.2752C47.4945 26.4262 47.4876 26.5896 47.5707 26.6401C47.6538 26.6906 47.7956 26.6091 47.8873 26.458Z" fill="#F7C8A0"/>
<path d="M55.1329 15.5449C55.3531 15.1823 55.3479 14.7769 55.1213 14.6392C54.8946 14.5016 54.5324 14.6839 54.3122 15.0465C54.092 15.409 54.0972 15.8145 54.3239 15.9521C54.5505 16.0898 54.9127 15.9074 55.1329 15.5449Z" fill="#F7C8A0"/>
<path opacity="0.2" d="M48.1967 28.1038L52.0072 24.898C50.155 25.8527 44.3744 29.3577 49.5762 20.7922C51.7381 17.232 47.3801 13.2789 49.4397 6.77465C51.5249 0.189528 53.4644 14.0303 53.9921 9.01071C54.1071 7.91537 54.4124 6.81524 55.3108 7.16842L51.2664 1.73649C50.4564 0.650739 49.1032 1.22286 48.9178 2.81297L46.1965 26.7285C46.0112 28.3186 47.1586 28.9738 48.1967 28.1038Z" fill="#CE8D5F"/>
<path d="M31.2476 136.026C30.4668 136.026 29.8007 135.462 29.6722 134.692L28.4196 127.176H32.8447V134.429C32.8447 135.311 32.1298 136.026 31.2476 136.026Z" fill="#37238E"/>
<path d="M112.5 136.026C113.281 136.026 113.947 135.462 114.076 134.692L115.328 127.176H110.903V134.429C110.903 135.311 111.618 136.026 112.5 136.026Z" fill="#37238E"/>
<path d="M113.963 115.992L117.646 88.6437C114.853 83.5055 87.3008 79.8772 71.7827 79.8772C56.2645 79.8772 28.7124 83.5058 25.9189 88.6437L29.6031 115.992" fill="#5D3EBD"/>
<path d="M117.648 88.4583V88.4721C114.246 83.6238 85.3679 81.9435 71.7809 81.9435C58.2032 81.9435 29.3243 83.6193 25.9184 88.4676V88.458C28.7147 83.3211 56.2631 78.5322 71.7809 78.5322C87.3036 78.5325 114.852 83.3214 117.648 88.4583Z" fill="#7A64D8"/>
<path d="M33.4834 121.328C33.4834 121.328 33.4834 116.502 33.4834 111.86C33.4834 109.279 33.6135 106.538 33.6135 104.129C33.6135 95.0042 30.3051 88.2452 24.4484 88.2452C15.8267 88.2452 16.4474 96.734 21.1218 98.5954C25.2311 100.231 25.5677 107.218 25.5677 111.86C25.5677 116.502 25.5677 121.328 25.5677 121.328H33.4834Z" fill="#7A64D8"/>
<path d="M30.2447 93.6799H17.7537V101.911H30.2447V93.6799Z" fill="#7A64D8"/>
<path d="M111.176 111.886H33.4699V129.615H111.176V111.886Z" fill="#37238E"/>
<path d="M111.176 120.526H33.4699V129.615H111.176V120.526Z" fill="#5D3EBD"/>
<path d="M111.176 120.526H33.4699V121.32H111.176V120.526Z" fill="#37238E"/>
<path d="M33.4834 129.615C33.4834 129.615 33.4834 124.789 33.4834 120.147C33.4834 117.566 33.6135 114.825 33.6135 112.416C33.6135 103.29 30.3051 96.5313 24.4484 96.5313C15.8267 96.5313 16.4474 105.021 21.1218 106.883C25.2311 108.518 25.5677 115.505 25.5677 120.147V127.443C25.5677 128.642 26.5403 129.615 27.7398 129.615H33.4834Z" fill="#5D3EBD"/>
<path d="M111.163 121.328C111.163 121.328 111.163 116.502 111.163 111.86C111.163 109.279 111.034 106.538 111.034 104.129C111.034 95.0042 114.342 88.2452 120.198 88.2452C128.82 88.2452 128.2 96.734 123.526 98.5954C119.417 100.231 119.08 107.218 119.08 111.86C119.08 116.502 119.08 121.328 119.08 121.328H111.163Z" fill="#7A64D8"/>
<path d="M126.893 93.6799H114.402V101.911H126.893V93.6799Z" fill="#7A64D8"/>
<path d="M111.163 129.615C111.163 129.615 111.163 124.789 111.163 120.147C111.163 117.566 111.034 114.825 111.034 112.416C111.034 103.29 114.342 96.5313 120.198 96.5313C128.82 96.5313 128.2 105.021 123.526 106.883C119.417 108.518 119.08 115.505 119.08 120.147V127.443C119.08 128.642 118.107 129.615 116.908 129.615H111.163Z" fill="#5D3EBD"/>
<path d="M108.946 109.066H35.7603C34.4953 109.066 33.4702 110.092 33.4702 111.356V118.133H111.236V111.356C111.236 110.092 110.21 109.066 108.946 109.066Z" fill="#7A64D8"/>
<path d="M111.236 111.358H33.4691C33.4691 107.695 52.4027 107.879 72.3527 107.879C91.7351 107.879 111.236 107.695 111.236 111.358Z" fill="#7A64D8"/>
<path d="M35.7603 111.459C34.4953 111.459 33.4702 112.484 33.4702 113.748V118.235C33.4702 119.5 34.4956 120.526 35.7603 120.526H108.946C110.21 120.526 111.236 119.501 111.236 118.235V113.748C111.236 112.484 110.21 111.459 108.946 111.459H35.7603Z" fill="#5D3EBD"/>
<path d="M111.236 116.482V118.236C111.236 119.501 110.21 120.526 108.946 120.526H35.7588C34.4954 120.526 33.4691 119.501 33.4691 118.236V116.482C33.4691 117.746 34.4954 118.772 35.7588 118.772H108.946C110.21 118.772 111.236 117.747 111.236 116.482Z" fill="#5D3EBD"/>
<path d="M47.0606 73.022C46.476 73.2297 46.1707 73.8722 46.3785 74.4567C46.5862 75.0413 47.2287 75.3465 47.8133 75.1388C48.3978 74.931 48.7031 74.2886 48.4953 73.704C48.2876 73.1198 47.6451 72.8142 47.0606 73.022Z" fill="#E7C3B8"/>
<path d="M44.8794 72.6701L44.8806 72.6694C44.7752 72.5368 44.6886 72.3863 44.6285 72.2178C44.3376 71.3993 44.7649 70.5002 45.5835 70.2093C46.402 69.9185 47.3011 70.3461 47.592 71.1644L48.4949 73.7047L46.5571 74.7802L44.8794 72.6701Z" fill="#E7C3B8"/>
<path d="M47.5134 87.3026C48.6816 87.2073 49.7056 88.077 49.8009 89.2452C49.8961 90.4134 49.0264 91.4375 47.8582 91.5327C46.69 91.628 45.666 90.7583 45.5707 89.5901C45.4755 88.4222 46.3452 87.3978 47.5134 87.3026Z" fill="#AF1445"/>
<path d="M35.3452 91.4522L46.9927 87.4119L48.634 91.3164L37.6039 96.8257L35.3452 91.4522Z" fill="#AF1445"/>
<path d="M45.8891 88.4609L46.303 73.8744L48.5445 73.838L49.0133 88.6255L45.8891 88.4609Z" fill="#E7C3B8"/>
<path d="M46.2029 75.9627L48.7151 75.9224L49.8015 89.2451L45.5649 89.3135L46.2029 75.9627Z" fill="#AF1445"/>
<path d="M47.4371 74.4784L46.2609 74.7878C46.1359 74.8207 46.0078 74.746 45.9751 74.621L44.6474 69.5758C44.6145 69.4508 44.6893 69.3226 44.8143 69.29L45.9905 68.9807C46.1155 68.9477 46.2436 69.0225 46.2762 69.1475L47.6039 74.1927C47.6369 74.3177 47.5621 74.4455 47.4371 74.4784Z" fill="#1D1742"/>
<path d="M47.0337 74.5845L45.8575 74.8939C45.7325 74.9268 45.6044 74.852 45.5718 74.7271L44.2441 69.6819C44.2111 69.5569 44.2859 69.4287 44.4109 69.3961L45.5871 69.0867C45.7121 69.0538 45.8402 69.1286 45.8728 69.2536L47.2006 74.2988C47.2335 74.4237 47.1587 74.5516 47.0337 74.5845Z" fill="#40327A"/>
<path d="M47.8531 72.7407C47.6773 72.9181 47.391 72.9197 47.2136 72.7439L46.0431 71.5843C45.8657 71.4085 45.8645 71.1225 46.0399 70.9451C46.2157 70.7677 46.5018 70.7664 46.6792 70.9419L47.8496 72.1015C48.0276 72.2773 48.0289 72.5633 47.8531 72.7407Z" fill="#E7C3B8"/>
<path d="M26.2543 96.2538L22.2472 98.8034L24.0255 86.8346L23.1824 86.0289C23.1824 86.0289 17.2611 100.914 17.5242 102.249C17.6367 102.82 18.405 103.609 19.4997 103.609C20.3717 103.609 26.3962 101.333 26.3962 101.333L26.2543 96.2538Z" fill="#C11845"/>
<path d="M21.978 100.605C22.7899 100.03 22.8142 98.4856 22.8142 98.4856L22.2756 98.7877C22.1787 99.3937 22.08 99.9997 21.978 100.605Z" fill="#AF1445"/>
<path d="M28.7403 94.1788C29.5765 94.5004 31.9292 95.4762 33.0095 94.711C34.3011 93.7962 32.9174 92.0236 32.9174 92.0236C32.9174 92.0236 33.5027 91.7465 33.9274 91.5317C33.9284 91.5308 33.9294 91.5305 33.93 91.5289C33.9453 91.5132 33.9607 91.4959 33.9763 91.4793C34.0208 91.4317 34.0665 91.3809 34.1144 91.3265C34.1272 91.3118 34.14 91.2978 34.1528 91.2827C34.2825 91.1328 34.4225 90.9628 34.566 90.7806C35.1637 90.0244 35.8231 89.0806 36.0644 88.6711C36.1235 88.5698 37.247 88.8552 38.2794 89.1876C38.2835 89.1819 38.2874 89.1768 38.2922 89.1717C35.764 88.1351 35.188 85.4935 33.8706 83.1596C32.874 81.3947 33.0268 79.1999 32.1238 77.5906C29.5116 72.9363 22.4374 75.5377 21.6512 78.7517C16.388 82.1042 20.5354 90.7809 23.1652 93.8247C24.0611 94.8612 25.1229 95.7354 26.3304 96.3813C27.2663 95.5532 28.5754 94.385 28.7403 94.1788Z" fill="#723F1C"/>
<path d="M71.0077 99.2292C71.0077 99.2292 71.0831 101.434 71.5376 102.235C71.9918 103.035 81.7411 115.019 81.7411 115.019L82.8288 114.915C82.8288 114.915 74.5513 95.4535 72.8848 94.472C71.2189 93.4901 56.627 100.686 51.571 99.8393L46.1393 106.233C46.1393 106.233 47.0276 106.924 48.3233 107.572L53.1317 108.643C59.9635 108.024 71.0077 99.2292 71.0077 99.2292Z" fill="#608B93"/>
<path d="M71.0077 99.2292C71.0077 99.2292 71.0831 101.434 71.5376 102.235C71.9918 103.035 81.7412 115.019 81.7412 115.019L83.7078 114.476C83.7078 114.476 77.7149 102.892 74.7166 97.2693C73.9009 95.7386 73.2412 94.6819 72.8852 94.472C71.2193 93.4901 56.6274 100.686 51.5713 99.8393L46.1397 106.233C46.1397 106.233 47.0279 106.924 48.3237 107.572L53.132 108.643C59.9636 108.024 71.0077 99.2292 71.0077 99.2292Z" fill="#40327A"/>
<path d="M72.687 93.5696C72.687 93.5696 73.9795 96.0086 74.7162 97.2692C75.4284 98.486 88.4775 107.812 88.4775 107.812L89.8991 106.801C89.8991 106.801 75.5258 89.8 73.4061 89.1122C71.2864 88.4243 54.4172 100.057 50.6006 101.82L45.9799 107.049L50.8122 109.448C53.1764 110.621 55.9984 110.356 58.1056 108.766C64.7272 103.771 72.687 93.5696 72.687 93.5696Z" fill="#2E5EBF"/>
<path d="M25.9991 89.0387C26.7221 89.5581 29.0656 92.9927 28.8633 93.9398C28.6609 94.8865 27.6503 95.712 27.6503 95.712C27.6503 95.712 32.3171 98.743 34.2735 95.9307C36.2298 93.1183 36.2474 91.8194 35.6849 92.0121C34.4684 92.4286 32.0016 91.6928 31.8904 89.5325L25.9991 89.0387Z" fill="#E7C3B8"/>
<path d="M50.5255 101.804C51.1913 101.155 52.2156 99.6136 52.0836 99.6362C50.9998 99.8216 47.7499 99.3348 47.1724 99.2111C46.5248 99.0728 43.6409 96.4758 43.2772 95.9808C42.9144 95.4863 42.8594 92.8172 41.9769 92.3157C39.9675 91.174 36.265 91.9794 34.8267 91.151C34.4141 91.3757 33.4939 91.7778 33.4939 91.7778C33.4939 91.7778 34.9418 93.7811 33.5291 94.7815C32.3475 95.6186 29.6642 94.5802 28.7495 94.2283C28.4654 94.584 24.1956 97.7352 24.1956 97.7352L26.3961 101.332C26.3961 101.332 29.1787 100.26 30.1005 100.092C31.8636 101.563 36.4638 103.913 40.4396 105.814L47.8285 107.461C48.3313 105.867 48.8465 103.439 50.5255 101.804Z" fill="#C11845"/>
<path opacity="0.8" d="M34.1767 95.4585C36.0676 94.0004 34.2342 91.5339 34.1892 91.4639C33.8315 91.6301 33.4943 91.7774 33.4943 91.7774C33.4943 91.7774 34.9422 93.7808 33.5295 94.7812C32.3478 95.6183 29.6646 94.5799 28.7499 94.228C28.7064 94.2826 28.5677 94.4038 28.3654 94.5687C29.7871 95.2923 32.9123 96.433 34.1767 95.4585Z" fill="white"/>
<path d="M34.2508 90.6888C35.0517 91.329 37.6544 90.3689 38.8773 89.106C36.3893 88.0861 35.2483 85.5599 33.935 83.2704C33.9503 87.1941 32.1349 88.9977 34.2508 90.6888Z" fill="#723F1C"/>
<path d="M24.4951 87.681L25.492 87.1843L24.4986 85.1905L23.5018 85.6872C22.951 85.9614 22.7273 86.6301 23.0015 87.1808C23.2758 87.7315 23.9444 87.9555 24.4951 87.681Z" fill="#E7C3B8"/>
<path d="M32.3893 90.8253L28.4311 90.6524L26.4386 89.0386L30.6477 87.3961L32.3893 90.8253Z" fill="#D58781"/>
<path d="M25.5891 77.7079L25.218 77.8927C22.8506 79.0721 21.8876 81.9477 23.067 84.3151L24.9054 88.0054C26.112 90.4272 29.0531 91.4122 31.4749 90.2057L31.5804 90.1533C33.8353 89.0298 34.7526 86.291 33.6291 84.0361L31.4554 79.6729C30.3783 77.5101 27.7517 76.6305 25.5891 77.7079Z" fill="#E7C3B8"/>
<path d="M23.2152 84.9379L23.0065 85.0156L21.8473 81.8958C21.2499 80.2878 22.0688 78.5001 23.6768 77.9025L27.7193 76.4002C28.9527 75.9419 30.3242 76.5703 30.7829 77.8037L31.1012 78.6603L30.8922 78.7379C29.1141 79.3986 27.6004 80.6211 26.5802 82.2205C25.784 83.4683 24.6027 84.4224 23.2152 84.9379Z" fill="#723F1C"/>
<path d="M29.545 86.9452C29.879 87.6007 30.6813 87.8612 31.3368 87.5269C31.9923 87.1929 32.2528 86.3906 31.9185 85.7351L29.545 86.9452Z" fill="white"/>
<path d="M27.8771 84.5312C28.0793 84.3929 28.1311 84.1168 27.9927 83.9146C27.8544 83.7124 27.5783 83.6606 27.3761 83.799C27.1739 83.9374 27.1221 84.2134 27.2605 84.4156C27.3988 84.6178 27.6749 84.6696 27.8771 84.5312Z" fill="#723F1C"/>
<path d="M31.0331 82.9626C31.2353 82.8243 31.287 82.5482 31.1487 82.346C31.0103 82.1438 30.7342 82.092 30.532 82.2304C30.3298 82.3688 30.2781 82.6448 30.4164 82.847C30.5548 83.0492 30.8309 83.101 31.0331 82.9626Z" fill="#723F1C"/>
<path d="M28.5682 86.8346C28.722 86.4418 28.5282 85.9986 28.1354 85.8448C27.7425 85.6909 27.2993 85.8847 27.1455 86.2776C26.9917 86.6704 27.1855 87.1136 27.5783 87.2674C27.9712 87.4213 28.4144 87.2275 28.5682 86.8346Z" fill="#E2B1A7"/>
<path d="M33.31 84.2339C33.4638 83.841 33.27 83.3978 32.8772 83.244C32.4843 83.0902 32.0412 83.284 31.8873 83.6768C31.7335 84.0697 31.9273 84.5129 32.3202 84.6667C32.713 84.8205 33.1562 84.6267 33.31 84.2339Z" fill="#E2B1A7"/>
<path d="M84.0962 113.818L81.4986 115.043L82.3463 116.843L85.9854 115.126C86.2929 114.981 86.4249 114.614 86.2798 114.306C86.1858 114.107 85.9925 113.973 85.7729 113.955L84.0962 113.818Z" fill="#40327A"/>
<path d="M90.5176 106.263L87.92 107.488L88.7677 109.287L92.4069 107.571C92.7143 107.426 92.8464 107.059 92.7013 106.751C92.6073 106.552 92.4139 106.418 92.1943 106.4L90.5176 106.263Z" fill="#40327A"/>
<path d="M149.436 139.548H128.892V104.669C128.892 102.437 130.702 100.627 132.934 100.627H145.395C147.627 100.627 149.436 102.437 149.436 104.669V139.548Z" fill="#D38D2F"/>
<path d="M149.436 146.927H128.892V125.181C128.892 122.949 130.702 121.139 132.934 121.139H145.395C147.627 121.139 149.436 122.949 149.436 125.181V146.927Z" fill="#C06700"/>
<path d="M148.724 148.426H146.847V146.438C146.847 146.235 147.012 146.069 147.216 146.069H148.355C148.558 146.069 148.724 146.235 148.724 146.438V148.426H148.724Z" fill="#C06700"/>
<path d="M131.712 148.426H129.835V146.438C129.835 146.235 130 146.069 130.204 146.069H131.342C131.546 146.069 131.711 146.235 131.711 146.438V148.426H131.712Z" fill="#C06700"/>
<path d="M140.259 106.751H138.111V61.792H140.259C142.033 61.792 143.47 63.23 143.47 65.0035V103.539C143.47 105.313 142.033 106.751 140.259 106.751Z" fill="#5D3EBD"/>
<path d="M138.682 106.751H136.535V61.792H138.682C140.456 61.792 141.894 63.23 141.894 65.0035V103.539C141.894 105.313 140.456 106.751 138.682 106.751Z" fill="#5D3EBD"/>
<path d="M140.259 114.045H138.111V69.086H140.259C142.033 69.086 143.47 70.524 143.47 72.2975V110.833C143.47 112.607 142.033 114.045 140.259 114.045Z" fill="#5D3EBD"/>
<path d="M138.682 114.045H136.535V69.086H138.682C140.456 69.086 141.894 70.524 141.894 72.2975V110.833C141.894 112.607 140.456 114.045 138.682 114.045Z" fill="#37238E"/>
<path d="M83.6166 51.5883C95.5074 51.5883 105.147 41.9489 105.147 30.058C105.147 18.1672 95.5074 8.52783 83.6166 8.52783C71.7258 8.52783 62.0864 18.1672 62.0864 30.058C62.0864 41.9489 71.7258 51.5883 83.6166 51.5883Z" fill="#EBB76E"/>
<path d="M62.9082 30.666C62.9082 18.8778 72.4654 9.32022 84.254 9.32022C86.9883 9.32022 89.6009 9.83608 92.0038 10.7713C89.4165 9.63472 86.5562 9.00156 83.5495 9.00156C71.9457 9.00156 62.5393 18.408 62.5393 30.0117C62.5393 33.5429 63.4116 36.8727 64.955 39.7956C63.642 37.028 62.9082 33.9332 62.9082 30.666Z" fill="#F1D79D"/>
<path d="M86.3299 32.2011L96.5456 42.4168C96.9566 42.8278 97.6358 42.8109 98.0216 42.3749C100.601 39.4603 102.245 35.6987 102.492 31.5638C102.526 30.9808 102.064 30.4902 101.481 30.4902L87.051 30.4691C86.1452 30.4691 85.6923 31.5635 86.3299 32.2011Z" fill="#E59617"/>
<path d="M84.015 33.4844V47.9315C84.015 48.5187 84.5139 48.9799 85.0969 48.9422C88.9761 48.7031 92.7965 47.206 95.8914 44.4592C96.3277 44.0734 96.3484 43.3981 95.9374 42.9829L85.747 32.7672C85.1097 32.1254 84.015 32.5786 84.015 33.4844Z" fill="#E59617"/>
<path d="M80.8989 32.2011L70.6832 42.4168C70.2722 42.8278 69.593 42.8109 69.2072 42.3749C66.6282 39.4603 64.9841 35.6987 64.7367 31.5638C64.7031 30.9808 65.1644 30.4902 65.7473 30.4902L80.1778 30.4691C81.0836 30.4691 81.5365 31.5635 80.8989 32.2011Z" fill="#E59617"/>
<path d="M83.2138 33.4844V47.9315C83.2138 48.5187 82.7149 48.9799 82.1319 48.9422C78.2527 48.7031 74.4323 47.206 71.3374 44.4592C70.9011 44.0734 70.8803 43.3981 71.2914 42.9829L81.4818 32.7672C82.1191 32.1254 83.2138 32.5786 83.2138 33.4844Z" fill="#E59617"/>
<path d="M80.8989 27.9149L70.6832 17.6993C70.2722 17.2882 69.593 17.3052 69.2072 17.7411C66.6282 20.6557 64.9841 24.4173 64.7367 28.5523C64.7031 29.1352 65.1644 29.6259 65.7473 29.6259L80.1778 29.647C81.0836 29.647 81.5365 28.5526 80.8989 27.9149Z" fill="#E59617"/>
<path d="M83.2138 26.6317V12.1846C83.2138 11.5975 82.7149 11.1363 82.1319 11.174C78.2527 11.4131 74.4323 12.9102 71.3374 15.657C70.9011 16.0427 70.8803 16.7181 71.2914 17.1333L81.4818 27.349C82.1191 27.9904 83.2138 27.5375 83.2138 26.6317Z" fill="#E59617"/>
<path d="M86.3299 27.9149L96.5456 17.6993C96.9566 17.2882 97.6358 17.3052 98.0216 17.7411C100.601 20.6557 102.245 24.4173 102.492 28.5523C102.526 29.1352 102.064 29.6259 101.481 29.6259L87.051 29.647C86.1452 29.647 85.6923 28.5526 86.3299 27.9149Z" fill="#E59617"/>
<path d="M84.015 26.6317V12.1846C84.015 11.5975 84.5139 11.1363 85.0969 11.174C88.9761 11.4131 92.7965 12.9102 95.8914 15.657C96.3277 16.0427 96.3484 16.7181 95.9374 17.1333L85.747 27.349C85.1097 27.9904 84.015 27.5375 84.015 26.6317Z" fill="#E59617"/>
<path d="M83.615 48.8194C93.9772 48.8194 102.377 40.4192 102.377 30.0571C102.377 19.695 93.9772 11.2948 83.615 11.2948C73.2529 11.2948 64.8527 19.695 64.8527 30.0571C64.8527 40.4192 73.2529 48.8194 83.615 48.8194Z" fill="#E59617"/>
<path d="M83.9648 29.5211L95.7112 17.7747C96.1263 17.3595 96.1011 16.68 95.661 16.2901C92.7464 13.7152 88.9848 12.067 84.8457 11.8237C84.2627 11.7902 83.7721 12.2514 83.7721 12.8385L83.751 29.4328C83.7465 29.5463 83.8849 29.6051 83.9648 29.5211Z" fill="#FFC54E"/>
<path d="M84.2288 29.932H100.84C101.427 29.932 101.888 29.4331 101.855 28.846C101.616 24.9584 100.119 21.138 97.3636 18.039C96.9778 17.6027 96.2983 17.5819 95.8873 17.993L84.1409 29.7144C84.061 29.7936 84.1157 29.932 84.2288 29.932Z" fill="#FFC54E"/>
<path d="M83.9648 30.5946L95.7112 42.341C96.1263 42.7561 96.1011 43.4356 95.661 43.8256C92.7464 46.4004 88.9848 48.0487 84.8457 48.2919C84.2627 48.3255 83.7721 47.8643 83.7721 47.2772L83.751 30.6828C83.7465 30.5697 83.8849 30.5109 83.9648 30.5946Z" fill="#FFC54E"/>
<path d="M84.2288 30.1839H100.84C101.427 30.1839 101.888 30.6828 101.855 31.27C101.616 35.1575 100.119 38.9779 97.3636 42.0769C96.9778 42.5132 96.2983 42.534 95.8873 42.123L84.1409 30.4016C84.061 30.3223 84.1157 30.1839 84.2288 30.1839Z" fill="#FFC54E"/>
<path d="M83.2641 30.5946L71.5178 42.341C71.1026 42.7561 71.1278 43.4356 71.5679 43.8256C74.4826 46.4004 78.2442 48.0487 82.3832 48.2919C82.9662 48.3255 83.4568 47.8643 83.4568 47.2772L83.4779 30.6828C83.4824 30.5697 83.344 30.5109 83.2641 30.5946Z" fill="#FFC54E"/>
<path d="M83.0002 30.1839H66.3892C65.8021 30.1839 65.3409 30.6828 65.3744 31.27C65.6135 35.1575 67.1106 38.9779 69.8657 42.0769C70.2515 42.5132 70.931 42.534 71.342 42.123L83.0925 30.406C83.168 30.3223 83.1133 30.1839 83.0002 30.1839Z" fill="#FFC54E"/>
<path d="M83.2641 29.5211L71.5178 17.7747C71.1026 17.3595 71.1278 16.68 71.5679 16.2901C74.4826 13.7152 78.2442 12.067 82.3832 11.8237C82.9662 11.7902 83.4568 12.2514 83.4568 12.8385L83.4779 29.4328C83.4824 29.5463 83.344 29.6051 83.2641 29.5211Z" fill="#FFC54E"/>
<path d="M83.0002 29.932H66.3892C65.8021 29.932 65.3409 29.4331 65.3744 28.846C65.6135 24.9584 67.1106 21.138 69.8657 18.039C70.2515 17.6027 70.931 17.5819 71.342 17.993L83.0925 29.7099C83.168 29.7936 83.1133 29.932 83.0002 29.932Z" fill="#FFC54E"/>
<path d="M97.0675 33.5601C98.2 33.5601 99.1181 32.642 99.1181 31.5094C99.1181 30.3768 98.2 29.4587 97.0675 29.4587C95.9349 29.4587 95.0168 30.3768 95.0168 31.5094C95.0168 32.642 95.9349 33.5601 97.0675 33.5601Z" fill="#B52020"/>
<path d="M95.4131 31.9888C95.1478 31.9888 94.933 31.7741 94.933 31.5088C94.933 30.3307 95.8916 29.3724 97.0697 29.3724C97.335 29.3724 97.5498 29.5872 97.5498 29.8525C97.5498 30.1175 97.335 30.3326 97.0697 30.3326C96.4209 30.3326 95.8932 30.8603 95.8932 31.5091C95.8932 31.7741 95.6784 31.9888 95.4131 31.9888Z" fill="#D43636"/>
<path d="M91.112 35.745C92.2446 35.745 93.1627 34.8269 93.1627 33.6944C93.1627 32.5618 92.2446 31.6437 91.112 31.6437C89.9795 31.6437 89.0614 32.5618 89.0614 33.6944C89.0614 34.8269 89.9795 35.745 91.112 35.745Z" fill="#B52020"/>
<path d="M89.4541 34.1738C89.1892 34.1738 88.9741 33.959 88.9741 33.6937C88.9741 32.5156 89.9326 31.5571 91.1107 31.5571C91.376 31.5571 91.5908 31.7718 91.5908 32.0371C91.5908 32.3021 91.376 32.5172 91.1107 32.5172C90.4619 32.5172 89.9342 33.0449 89.9342 33.6937C89.9342 33.959 89.7191 34.1738 89.4541 34.1738Z" fill="#D43636"/>
<path d="M88.6576 26.1684C89.7902 26.1684 90.7083 25.2502 90.7083 24.1177C90.7083 22.9851 89.7902 22.067 88.6576 22.067C87.5251 22.067 86.607 22.9851 86.607 24.1177C86.607 25.2502 87.5251 26.1684 88.6576 26.1684Z" fill="#B52020"/>
<path d="M87.005 24.5958C86.7397 24.5958 86.5249 24.381 86.5249 24.1157C86.5249 22.9376 87.4834 21.979 88.6616 21.979C88.9268 21.979 89.1416 22.1938 89.1416 22.4591C89.1416 22.7241 88.9268 22.9392 88.6616 22.9392C88.0127 22.9392 87.485 23.4669 87.485 24.1157C87.485 24.3807 87.2699 24.5958 87.005 24.5958Z" fill="#D43636"/>
<path d="M84.7091 18.4639C85.8416 18.4639 86.7597 17.5458 86.7597 16.4133C86.7597 15.2807 85.8416 14.3626 84.7091 14.3626C83.5765 14.3626 82.6584 15.2807 82.6584 16.4133C82.6584 17.5458 83.5765 18.4639 84.7091 18.4639Z" fill="#B52020"/>
<path d="M83.0544 16.892C82.7891 16.892 82.5743 16.6772 82.5743 16.4119C82.5743 15.2338 83.5328 14.2753 84.7109 14.2753C84.9762 14.2753 85.191 14.4901 85.191 14.7553C85.191 15.0206 84.9762 15.2354 84.7109 15.2354C84.0621 15.2354 83.5344 15.7631 83.5344 16.4119C83.5344 16.6769 83.3196 16.892 83.0544 16.892Z" fill="#D43636"/>
<path d="M70.0942 32.9297C71.2268 32.9297 72.1449 32.0116 72.1449 30.879C72.1449 29.7465 71.2268 28.8284 70.0942 28.8284C68.9617 28.8284 68.0435 29.7465 68.0435 30.879C68.0435 32.0116 68.9617 32.9297 70.0942 32.9297Z" fill="#B52020"/>
<path d="M68.4395 31.3598C68.1745 31.3598 67.9594 31.145 67.9594 30.8798C67.9594 29.7016 68.918 28.7431 70.0961 28.7431C70.3611 28.7431 70.5762 28.9579 70.5762 29.2232C70.5762 29.4881 70.3614 29.7032 70.0961 29.7032C69.4473 29.7032 68.9196 30.2309 68.9196 30.8798C68.9196 31.145 68.7048 31.3598 68.4395 31.3598Z" fill="#D43636"/>
<path d="M79.2321 35.1884C80.3646 35.1884 81.2828 34.2703 81.2828 33.1377C81.2828 32.0051 80.3646 31.087 79.2321 31.087C78.0995 31.087 77.1814 32.0051 77.1814 33.1377C77.1814 34.2703 78.0995 35.1884 79.2321 35.1884Z" fill="#B52020"/>
<path d="M77.5777 33.6161C77.3127 33.6161 77.0976 33.4013 77.0976 33.1361C77.0976 31.9579 78.0562 30.9994 79.2343 30.9994C79.4993 30.9994 79.7144 31.2142 79.7144 31.4795C79.7144 31.7447 79.4996 31.9595 79.2343 31.9595C78.5855 31.9595 78.0578 32.4872 78.0578 33.1361C78.0574 33.4013 77.8427 33.6161 77.5777 33.6161Z" fill="#D43636"/>
<path d="M73.1276 40.6649C74.2601 40.6649 75.1783 39.7468 75.1783 38.6142C75.1783 37.4817 74.2601 36.5635 73.1276 36.5635C71.995 36.5635 71.0769 37.4817 71.0769 38.6142C71.0769 39.7468 71.995 40.6649 73.1276 40.6649Z" fill="#B52020"/>
<path d="M71.4717 39.093C71.2067 39.093 70.9916 38.8779 70.9916 38.6129C70.9916 37.4348 71.9502 36.4766 73.1283 36.4766C73.3933 36.4766 73.6084 36.6914 73.6084 36.9566C73.6084 37.2219 73.3936 37.4367 73.1283 37.4367C72.4795 37.4367 71.9518 37.9644 71.9518 38.6132C71.9515 38.8782 71.7367 39.093 71.4717 39.093Z" fill="#D43636"/>
<path d="M80.8587 45.5861C81.9913 45.5861 82.9094 44.668 82.9094 43.5354C82.9094 42.4029 81.9913 41.4847 80.8587 41.4847C79.7261 41.4847 78.808 42.4029 78.808 43.5354C78.808 44.668 79.7261 45.5861 80.8587 45.5861Z" fill="#B52020"/>
<path d="M79.205 44.0123C78.94 44.0123 78.7249 43.7975 78.7249 43.5323C78.7249 42.3541 79.6831 41.3956 80.8613 41.3956C81.1262 41.3956 81.3413 41.6104 81.3413 41.8757C81.3413 42.141 81.1265 42.3557 80.8613 42.3557C80.2124 42.3557 79.6847 42.8834 79.6847 43.5323C79.6847 43.7972 79.4699 44.0123 79.205 44.0123Z" fill="#D43636"/>
<path d="M85.189 38.2946C86.3216 38.2946 87.2397 37.3765 87.2397 36.2439C87.2397 35.1114 86.3216 34.1933 85.189 34.1933C84.0565 34.1933 83.1384 35.1114 83.1384 36.2439C83.1384 37.3765 84.0565 38.2946 85.189 38.2946Z" fill="#B52020"/>
<path d="M83.5368 36.7237C83.2716 36.7237 83.0568 36.5089 83.0568 36.2436C83.0568 35.0655 84.0153 34.1073 85.1934 34.1073C85.4587 34.1073 85.6735 34.3221 85.6735 34.5874C85.6735 34.8523 85.4587 35.0674 85.1934 35.0674C84.5446 35.0674 84.0169 35.5951 84.0169 36.244C84.0169 36.5086 83.8021 36.7237 83.5368 36.7237Z" fill="#D43636"/>
<path d="M89.3254 44.4832C90.458 44.4832 91.3761 43.5651 91.3761 42.4325C91.3761 41.3 90.458 40.3818 89.3254 40.3818C88.1929 40.3818 87.2747 41.3 87.2747 42.4325C87.2747 43.5651 88.1929 44.4832 89.3254 44.4832Z" fill="#B52020"/>
<path d="M87.6717 42.9135C87.4064 42.9135 87.1917 42.6987 87.1917 42.4334C87.1917 41.2553 88.1502 40.2971 89.3283 40.2971C89.5936 40.2971 89.8084 40.5119 89.8084 40.7771C89.8084 41.0424 89.5936 41.2572 89.3283 41.2572C88.6795 41.2572 88.1518 41.7849 88.1518 42.4334C88.1518 42.6987 87.937 42.9135 87.6717 42.9135Z" fill="#D43636"/>
<path d="M96.2829 25.5055C97.4154 25.5055 98.3335 24.5873 98.3335 23.4548C98.3335 22.3222 97.4154 21.4041 96.2829 21.4041C95.1503 21.4041 94.2322 22.3222 94.2322 23.4548C94.2322 24.5873 95.1503 25.5055 96.2829 25.5055Z" fill="#B52020"/>
<path d="M94.625 23.9329C94.36 23.9329 94.1449 23.7181 94.1449 23.4528C94.1449 22.2747 95.1031 21.3165 96.2812 21.3165C96.5465 21.3165 96.7613 21.5313 96.7613 21.7965C96.7613 22.0615 96.5465 22.2766 96.2812 22.2766C95.6327 22.2766 95.105 22.8043 95.105 23.4531C95.105 23.7181 94.8899 23.9329 94.625 23.9329Z" fill="#D43636"/>
<path d="M78.854 27.4997C79.9866 27.4997 80.9047 26.5816 80.9047 25.449C80.9047 24.3165 79.9866 23.3984 78.854 23.3984C77.7215 23.3984 76.8033 24.3165 76.8033 25.449C76.8033 26.5816 77.7215 27.4997 78.854 27.4997Z" fill="#B52020"/>
<path d="M77.2003 25.9292C76.9354 25.9292 76.7202 25.7144 76.7202 25.4491C76.7202 24.271 77.6788 23.3128 78.8569 23.3128C79.1219 23.3128 79.337 23.5275 79.337 23.7928C79.337 24.0581 79.1222 24.2729 78.8569 24.2729C78.2081 24.2729 77.6804 24.8006 77.6804 25.4494C77.6801 25.7141 77.4653 25.9292 77.2003 25.9292Z" fill="#D43636"/>
<path d="M76.747 20.0632C77.8795 20.0632 78.7976 19.1451 78.7976 18.0125C78.7976 16.88 77.8795 15.9618 76.747 15.9618C75.6144 15.9618 74.6963 16.88 74.6963 18.0125C74.6963 19.1451 75.6144 20.0632 76.747 20.0632Z" fill="#B52020"/>
<path d="M75.0908 18.4938C74.8258 18.4938 74.6107 18.279 74.6107 18.0137C74.6107 16.8356 75.5689 15.8774 76.747 15.8774C77.012 15.8774 77.2271 16.0922 77.2271 16.3575C77.2271 16.6224 77.0123 16.8375 76.747 16.8375C76.0982 16.8375 75.5705 17.3652 75.5705 18.0141C75.5708 18.2787 75.3557 18.4938 75.0908 18.4938Z" fill="#D43636"/>
<path d="M70.715 25.6493C71.8475 25.6493 72.7657 24.7312 72.7657 23.5986C72.7657 22.4661 71.8475 21.548 70.715 21.548C69.5824 21.548 68.6643 22.4661 68.6643 23.5986C68.6643 24.7312 69.5824 25.6493 70.715 25.6493Z" fill="#B52020"/>
<path d="M69.0603 24.0799C68.7953 24.0799 68.5802 23.8651 68.5802 23.5999C68.5802 22.4217 69.5387 21.4635 70.7169 21.4635C70.9818 21.4635 71.1969 21.6783 71.1969 21.9436C71.1969 22.2086 70.9821 22.4237 70.7169 22.4237C70.068 22.4237 69.5403 22.9514 69.5403 23.6002C69.5403 23.8648 69.3256 24.0799 69.0603 24.0799Z" fill="#D43636"/>
<path d="M96.986 36.9816C96.986 36.9816 96.3989 37.6566 95.6692 37.6566C94.9437 37.6566 94.3524 36.9816 94.3524 36.9816C94.3524 36.9816 94.9395 36.3065 95.6692 36.3065C96.3944 36.3065 96.986 36.9816 96.986 36.9816Z" fill="#6AB24B"/>
<path d="M86.552 39.5147C86.552 39.5147 86.4638 40.0849 86.0572 40.4038C85.6504 40.7225 85.076 40.6723 85.076 40.6723C85.076 40.6723 85.1642 40.1021 85.5708 39.7831C85.9777 39.4645 86.552 39.5147 86.552 39.5147Z" fill="#6AB24B"/>
<path d="M74.9147 32.3602C74.9147 32.3602 74.7216 32.4439 74.5542 32.3685C74.3905 32.2972 74.3192 32.0959 74.3192 32.0959C74.3192 32.0959 74.5123 32.0121 74.6798 32.0876C74.8434 32.1588 74.9147 32.3602 74.9147 32.3602Z" fill="#6AB24B"/>
<path d="M81.9895 40.2736C81.9895 40.2736 81.7964 40.3574 81.6289 40.282C81.4653 40.2107 81.394 40.0093 81.394 40.0093C81.394 40.0093 81.5871 39.9256 81.7545 40.001C81.9224 40.0764 81.9895 40.2736 81.9895 40.2736Z" fill="#6AB24B"/>
<path d="M69.2321 35.3545C69.2321 35.3545 69.211 35.5641 69.0726 35.6773C68.93 35.7863 68.7204 35.7569 68.7204 35.7569C68.7204 35.7569 68.7415 35.5472 68.8799 35.434C69.0266 35.3212 69.2321 35.3545 69.2321 35.3545Z" fill="#6AB24B"/>
<path d="M84.6858 31.5971C84.6858 31.5971 84.6647 31.8067 84.5263 31.9199C84.3838 32.0289 84.1741 31.9995 84.1741 31.9995C84.1741 31.9995 84.1952 31.7898 84.3336 31.6767C84.4761 31.5635 84.6858 31.5971 84.6858 31.5971Z" fill="#6AB24B"/>
<path d="M85.273 24.6986C85.273 24.6986 85.2519 24.9083 85.1135 25.0214C84.9709 25.1304 84.7613 25.101 84.7613 25.101C84.7613 25.101 84.7824 24.8914 84.9208 24.7782C85.0633 24.6692 85.273 24.6986 85.273 24.6986Z" fill="#6AB24B"/>
<path d="M74.6085 24.3631C74.6085 24.3631 74.6715 24.5645 74.5833 24.7195C74.4951 24.8745 74.2899 24.925 74.2899 24.925C74.2899 24.925 74.2269 24.7236 74.3151 24.5686C74.403 24.4133 74.6085 24.3631 74.6085 24.3631Z" fill="#6AB24B"/>
<path d="M88.0408 31.8739C88.0408 31.8739 87.8312 31.8528 87.718 31.7144C87.6049 31.576 87.6384 31.3622 87.6384 31.3622C87.6384 31.3622 87.8481 31.3833 87.9613 31.5217C88.0744 31.6601 88.0408 31.8739 88.0408 31.8739Z" fill="#6AB24B"/>
<path d="M89.5926 28.2295C89.5926 28.2295 89.4878 28.0451 89.5425 27.8731C89.5971 27.7012 89.7857 27.6088 89.7857 27.6088C89.7857 27.6088 89.8905 27.7932 89.8359 27.9652C89.7812 28.1375 89.5926 28.2295 89.5926 28.2295Z" fill="#6AB24B"/>
<path d="M81.3604 22.1447C81.3604 22.1447 80.4671 22.1194 80.0059 21.5617C79.5447 21.0039 79.6872 20.1189 79.6872 20.1189C79.6872 20.1189 80.5806 20.1442 81.0418 20.7019C81.503 21.2641 81.3604 22.1447 81.3604 22.1447Z" fill="#6AB24B"/>
<path d="M90.1292 19.7248C90.1292 19.7248 89.4372 19.1587 89.4078 18.4332C89.3825 17.7077 90.0327 17.0953 90.0327 17.0953C90.0327 17.0953 90.7246 17.6613 90.754 18.3869C90.7834 19.1127 90.1292 19.7248 90.1292 19.7248Z" fill="#6AB24B"/>
<path d="M94.4531 28.4855C94.4531 28.4855 93.5597 28.4603 93.0985 27.9025C92.6373 27.3448 92.7799 26.4598 92.7799 26.4598C92.7799 26.4598 93.6732 26.485 94.1344 27.0428C94.5956 27.6005 94.4531 28.4855 94.4531 28.4855Z" fill="#6AB24B"/>
<path d="M77.5944 28.6488C77.5944 28.6488 76.7515 28.9467 76.1181 28.59C75.4849 28.2336 75.3046 27.3569 75.3046 27.3569C75.3046 27.3569 76.1475 27.059 76.781 27.4157C77.4144 27.7724 77.5944 28.6488 77.5944 28.6488Z" fill="#6AB24B"/>
<path d="M76.0804 36.08C76.0804 36.08 75.2376 36.3779 74.6041 36.0212C73.9709 35.6648 73.7906 34.7881 73.7906 34.7881C73.7906 34.7881 74.6335 34.4902 75.2667 34.8469C75.896 35.2077 76.0804 36.08 76.0804 36.08Z" fill="#6AB24B"/>
<path d="M77.7287 40.3578C77.7287 40.3578 77.5986 41.2426 76.9865 41.637C76.3744 42.0314 75.5146 41.7837 75.5146 41.7837C75.5146 41.7837 75.6447 40.899 76.2568 40.5045C76.8689 40.1101 77.7287 40.3578 77.7287 40.3578Z" fill="#6AB24B"/>
<path d="M68.142 28.2171C68.142 28.2171 67.2822 27.9697 66.976 27.3113C66.6698 26.6529 67.0307 25.835 67.0307 25.835C67.0307 25.835 67.8905 26.0823 68.1966 26.7408C68.5067 27.3992 68.142 28.2171 68.142 28.2171Z" fill="#6AB24B"/>
<path d="M72.5242 27.2736C72.6354 27.2736 72.7255 27.1834 72.7255 27.0722C72.7255 26.961 72.6354 26.8709 72.5242 26.8709C72.413 26.8709 72.3228 26.961 72.3228 27.0722C72.3228 27.1834 72.413 27.2736 72.5242 27.2736Z" fill="#803E00"/>
<path d="M82.9496 32.1087C83.0608 32.1087 83.1509 32.0185 83.1509 31.9073C83.1509 31.7961 83.0608 31.706 82.9496 31.706C82.8384 31.706 82.7482 31.7961 82.7482 31.9073C82.7482 32.0185 82.8384 32.1087 82.9496 32.1087Z" fill="#803E00"/>
<path d="M69.1232 37.9254C69.2344 37.9254 69.3245 37.8353 69.3245 37.7241C69.3245 37.6129 69.2344 37.5227 69.1232 37.5227C69.012 37.5227 68.9218 37.6129 68.9218 37.7241C68.9218 37.8353 69.012 37.9254 69.1232 37.9254Z" fill="#803E00"/>
<path d="M75.2416 31.7817C75.3528 31.7817 75.443 31.6915 75.443 31.5803C75.443 31.4691 75.3528 31.379 75.2416 31.379C75.1304 31.379 75.0403 31.4691 75.0403 31.5803C75.0403 31.6915 75.1304 31.7817 75.2416 31.7817Z" fill="#803E00"/>
<path d="M70.0501 19.595C70.1614 19.595 70.2515 19.5049 70.2515 19.3936C70.2515 19.2824 70.1614 19.1923 70.0501 19.1923C69.9389 19.1923 69.8488 19.2824 69.8488 19.3936C69.8488 19.5049 69.9389 19.595 70.0501 19.595Z" fill="#803E00"/>
<path d="M78.3745 22.4172C78.4857 22.4172 78.5759 22.327 78.5759 22.2158C78.5759 22.1046 78.4857 22.0145 78.3745 22.0145C78.2633 22.0145 78.1732 22.1046 78.1732 22.2158C78.1732 22.327 78.2633 22.4172 78.3745 22.4172Z" fill="#803E00"/>
<path d="M85.6922 20.2156C85.8034 20.2156 85.8935 20.1255 85.8935 20.0142C85.8935 19.903 85.8034 19.8129 85.6922 19.8129C85.581 19.8129 85.4908 19.903 85.4908 20.0142C85.4908 20.1255 85.581 20.2156 85.6922 20.2156Z" fill="#803E00"/>
<path d="M82.5178 26.8961C82.629 26.8961 82.7192 26.8059 82.7192 26.6947C82.7192 26.5835 82.629 26.4933 82.5178 26.4933C82.4066 26.4933 82.3165 26.5835 82.3165 26.6947C82.3165 26.8059 82.4066 26.8961 82.5178 26.8961Z" fill="#803E00"/>
<path d="M88.5483 20.9118C88.6595 20.9118 88.7496 20.8216 88.7496 20.7104C88.7496 20.5992 88.6595 20.509 88.5483 20.509C88.4371 20.509 88.3469 20.5992 88.3469 20.7104C88.3469 20.8216 88.4371 20.9118 88.5483 20.9118Z" fill="#803E00"/>
<path d="M92.7545 23.2476C92.8657 23.2476 92.9559 23.1575 92.9559 23.0463C92.9559 22.9351 92.8657 22.8449 92.7545 22.8449C92.6433 22.8449 92.5532 22.9351 92.5532 23.0463C92.5532 23.1575 92.6433 23.2476 92.7545 23.2476Z" fill="#803E00"/>
<path d="M86.8122 31.1486C86.9234 31.1486 87.0136 31.0585 87.0136 30.9473C87.0136 30.8361 86.9234 30.7459 86.8122 30.7459C86.701 30.7459 86.6108 30.8361 86.6108 30.9473C86.6108 31.0585 86.701 31.1486 86.8122 31.1486Z" fill="#803E00"/>
<path d="M71.4966 33.9624C71.6079 33.9624 71.698 33.8723 71.698 33.7611C71.698 33.6499 71.6079 33.5597 71.4966 33.5597C71.3854 33.5597 71.2953 33.6499 71.2953 33.7611C71.2953 33.8723 71.3854 33.9624 71.4966 33.9624Z" fill="#803E00"/>
<path d="M90.1375 15.2504C90.2487 15.2504 90.3388 15.1603 90.3388 15.0491C90.3388 14.9379 90.2487 14.8477 90.1375 14.8477C90.0263 14.8477 89.9361 14.9379 89.9361 15.0491C89.9361 15.1603 90.0263 15.2504 90.1375 15.2504Z" fill="#803E00"/>
<path d="M80.3117 14.9609C80.4229 14.9609 80.5131 14.8707 80.5131 14.7595C80.5131 14.6483 80.4229 14.5581 80.3117 14.5581C80.2005 14.5581 80.1104 14.6483 80.1104 14.7595C80.1104 14.8707 80.2005 14.9609 80.3117 14.9609Z" fill="#803E00"/>
<path d="M92.4819 18.4166C92.5931 18.4166 92.6833 18.3264 92.6833 18.2152C92.6833 18.104 92.5931 18.0139 92.4819 18.0139C92.3707 18.0139 92.2806 18.104 92.2806 18.2152C92.2806 18.3264 92.3707 18.4166 92.4819 18.4166Z" fill="#803E00"/>
<path d="M96.575 40.2654C96.6862 40.2654 96.7764 40.1752 96.7764 40.064C96.7764 39.9528 96.6862 39.8626 96.575 39.8626C96.4638 39.8626 96.3737 39.9528 96.3737 40.064C96.3737 40.1752 96.4638 40.2654 96.575 40.2654Z" fill="#803E00"/>
<path d="M85.986 45.6082C86.0972 45.6082 86.1873 45.5181 86.1873 45.4069C86.1873 45.2957 86.0972 45.2055 85.986 45.2055C85.8748 45.2055 85.7846 45.2957 85.7846 45.4069C85.7846 45.5181 85.8748 45.6082 85.986 45.6082Z" fill="#803E00"/>
<path d="M77.4393 38.8815C77.5505 38.8815 77.6407 38.7913 77.6407 38.6801C77.6407 38.5689 77.5505 38.4787 77.4393 38.4787C77.3281 38.4787 77.238 38.5689 77.238 38.6801C77.238 38.7913 77.3281 38.8815 77.4393 38.8815Z" fill="#803E00"/>
<path d="M80.9912 36.6127C81.1024 36.6127 81.1926 36.5226 81.1926 36.4114C81.1926 36.3002 81.1024 36.21 80.9912 36.21C80.88 36.21 80.7899 36.3002 80.7899 36.4114C80.7899 36.5226 80.88 36.6127 80.9912 36.6127Z" fill="#803E00"/>
<path d="M88.3552 38.6004C88.4664 38.6004 88.5566 38.5103 88.5566 38.3991C88.5566 38.2879 88.4664 38.1977 88.3552 38.1977C88.244 38.1977 88.1539 38.2879 88.1539 38.3991C88.1539 38.5103 88.244 38.6004 88.3552 38.6004Z" fill="#803E00"/>
<path d="M80.2869 41.104C80.3981 41.104 80.4882 41.0139 80.4882 40.9027C80.4882 40.7914 80.3981 40.7013 80.2869 40.7013C80.1756 40.7013 80.0855 40.7914 80.0855 40.9027C80.0855 41.0139 80.1756 41.104 80.2869 41.104Z" fill="#803E00"/>
<path d="M94.3354 35.5308C94.4466 35.5308 94.5367 35.4407 94.5367 35.3295C94.5367 35.2183 94.4466 35.1281 94.3354 35.1281C94.2241 35.1281 94.134 35.2183 94.134 35.3295C94.134 35.4407 94.2241 35.5308 94.3354 35.5308Z" fill="#803E00"/>
<path d="M100.03 34.6376C100.142 34.6376 100.232 34.5474 100.232 34.4362C100.232 34.325 100.142 34.2349 100.03 34.2349C99.9192 34.2349 99.8291 34.325 99.8291 34.4362C99.8291 34.5474 99.9192 34.6376 100.03 34.6376Z" fill="#803E00"/>
<path d="M90.3641 31.2198C90.4753 31.2198 90.5654 31.1297 90.5654 31.0185C90.5654 30.9072 90.4753 30.8171 90.3641 30.8171C90.2529 30.8171 90.1627 30.9072 90.1627 31.0185C90.1627 31.1297 90.2529 31.2198 90.3641 31.2198Z" fill="#803E00"/>
<path d="M91.2575 28.5652C91.3687 28.5652 91.4589 28.475 91.4589 28.3638C91.4589 28.2526 91.3687 28.1624 91.2575 28.1624C91.1463 28.1624 91.0562 28.2526 91.0562 28.3638C91.0562 28.475 91.1463 28.5652 91.2575 28.5652Z" fill="#803E00"/>
<path d="M104.669 29.4374C104.669 41.4228 94.952 51.1437 82.9624 51.1437C80.1821 51.1437 77.5232 50.6195 75.0826 49.6674C77.7121 50.8247 80.618 51.4707 83.6797 51.4707C95.4765 51.4707 105.042 41.9051 105.042 30.1082C105.042 26.5144 104.153 23.13 102.589 20.161C103.922 22.9708 104.669 26.1203 104.669 29.4374Z" fill="#E59617"/>
<g opacity="0.4">
<g opacity="0.7">
<path opacity="0.7" d="M0.680771 44.7918L36.8767 37.6125C37.1756 37.5531 37.406 37.2862 37.3728 36.9822C37.3367 36.6438 37.0196 36.4156 36.6907 36.4808L35.8949 36.6387C35.6558 36.686 35.4109 36.5872 35.271 36.3897L32.4216 31.2473C32.0316 30.6918 31.3486 30.4195 30.6799 30.5525L3.75295 35.8962C3.08431 36.0288 2.56077 36.5405 2.40863 37.2034L1.73903 43.0442C1.68565 43.2839 1.49644 43.4651 1.25736 43.5124L0.498907 43.6629C0.200063 43.7224 -0.0303827 43.9893 0.00285774 44.2932C0.0386551 44.6282 0.355718 44.8564 0.680771 44.7918Z" fill="white"/>
</g>
<g opacity="0.4">
<path opacity="0.4" d="M30.1326 31.5117C30.2566 31.4909 30.3723 31.5456 30.3909 31.6389L31.3162 36.3012C31.3347 36.3945 31.2487 36.4894 31.1247 36.5099C31.0007 36.5307 30.885 36.476 30.8665 36.3827L29.9412 31.7204C29.9194 31.6315 30.0057 31.5369 30.1326 31.5117Z" fill="white"/>
<path opacity="0.4" d="M27.0058 32.1321C27.1298 32.1113 27.2455 32.166 27.264 32.2593L28.1893 36.9216C28.2079 37.0149 28.1219 37.1099 27.9979 37.1303C27.8739 37.1511 27.7582 37.0964 27.7396 37.0031L26.8143 32.3408C26.7919 32.2485 26.8824 32.1567 27.0058 32.1321Z" fill="white"/>
<path opacity="0.4" d="M23.8789 32.7527C24.0029 32.7319 24.1186 32.7866 24.1372 32.8799L25.0625 37.5422C25.081 37.6356 24.995 37.7305 24.871 37.7509C24.747 37.7717 24.6313 37.7171 24.6128 37.6237L23.6875 32.9614C23.6651 32.8687 23.7559 32.777 23.8789 32.7527Z" fill="white"/>
<path opacity="0.4" d="M20.7526 33.3732C20.8766 33.3524 20.9923 33.407 21.0108 33.5004L21.9361 38.1627C21.9547 38.256 21.8687 38.3509 21.7447 38.3714C21.6207 38.3921 21.505 38.3375 21.4864 38.2442L20.5611 33.5819C20.5387 33.4895 20.6292 33.3978 20.7526 33.3732Z" fill="white"/>
<path opacity="0.4" d="M17.6256 33.9936C17.7496 33.9728 17.8653 34.0275 17.8839 34.1208L18.8092 38.7831C18.8277 38.8764 18.7417 38.9714 18.6177 38.9918C18.4937 39.0126 18.378 38.9579 18.3595 38.8646L17.4342 34.2023C17.4153 34.1093 17.5016 34.0144 17.6256 33.9936Z" fill="white"/>
<path opacity="0.4" d="M14.4987 34.6142C14.6228 34.5934 14.7385 34.6481 14.757 34.7414L15.6823 39.4037C15.7008 39.497 15.6149 39.592 15.4908 39.6124C15.3668 39.6332 15.2511 39.5785 15.2326 39.4852L14.3073 34.8229C14.2888 34.7296 14.3747 34.635 14.4987 34.6142Z" fill="white"/>
<path opacity="0.4" d="M11.372 35.2346C11.4961 35.2139 11.6118 35.2685 11.6303 35.3618L12.5556 40.0241C12.5741 40.1175 12.4882 40.2124 12.3641 40.2329C12.2401 40.2536 12.1244 40.199 12.1059 40.1056L11.1806 35.4434C11.162 35.35 11.248 35.2554 11.372 35.2346Z" fill="white"/>
<path opacity="0.4" d="M8.24518 35.8553C8.36919 35.8345 8.48489 35.8891 8.50343 35.9825L9.42872 40.6447C9.44726 40.7381 9.36128 40.833 9.23727 40.8535C9.11326 40.8742 8.99756 40.8196 8.97902 40.7262L8.05372 36.064C8.03519 35.9706 8.12116 35.8757 8.24518 35.8553Z" fill="white"/>
<path opacity="0.4" d="M5.11831 36.4757C5.24233 36.4549 5.35803 36.5096 5.37657 36.6029L6.30186 41.2652C6.3204 41.3585 6.23443 41.4534 6.11041 41.4739C5.9864 41.4947 5.8707 41.44 5.85216 41.3467L4.92686 36.6844C4.90832 36.5911 4.9943 36.4965 5.11831 36.4757Z" fill="white"/>
</g>
</g>
<path opacity="0.8" d="M30.9072 31.0315C30.928 31.1555 30.8733 31.2712 30.78 31.2898L3.87186 36.6296C3.77853 36.6482 3.6836 36.5622 3.66315 36.4382C3.64237 36.3142 3.69702 36.1985 3.79035 36.1799L30.6985 30.8401C30.7918 30.8215 30.8864 30.9075 30.9072 31.0315Z" fill="white"/>
<path d="M22.5856 38.2473C22.9497 40.0234 20.8507 41.5192 20.8507 41.5192C20.8507 41.5192 18.3337 40.9666 17.9697 39.1905C17.6056 37.4143 19.4984 34.9188 19.4984 34.9188C19.4984 34.9188 22.2216 36.4712 22.5856 38.2473Z" fill="#80D480"/>
<path d="M13.284 41.4639C13.648 43.24 11.5491 44.7358 11.5491 44.7358C11.5491 44.7358 9.03206 44.1832 8.66802 42.4071C8.30397 40.6309 10.23 38.3035 10.23 38.3035C10.23 38.3035 12.9196 39.6877 13.284 41.4639Z" fill="#80D480"/>
<path d="M13.2427 42.6185C14.427 42.6185 15.387 41.6584 15.387 40.4742C15.387 39.2899 14.427 38.3298 13.2427 38.3298C12.0584 38.3298 11.0984 39.2899 11.0984 40.4742C11.0984 41.6584 12.0584 42.6185 13.2427 42.6185Z" fill="#E0411A"/>
<path d="M22.8375 39.8601C24.0218 39.8601 24.9818 38.9 24.9818 37.7158C24.9818 36.5315 24.0218 35.5714 22.8375 35.5714C21.6532 35.5714 20.6932 36.5315 20.6932 37.7158C20.6932 38.9 21.6532 39.8601 22.8375 39.8601Z" fill="#E0411A"/>
<path d="M29.0748 38.6104C29.8236 38.6104 30.4306 38.0034 30.4306 37.2546C30.4306 36.5058 29.8236 35.8988 29.0748 35.8988C28.326 35.8988 27.7189 36.5058 27.7189 37.2546C27.7189 38.0034 28.326 38.6104 29.0748 38.6104Z" fill="#E0411A"/>
<path d="M29.6703 36.6936C31.4094 38.1386 30.6138 41.1929 30.6138 41.1929C30.6138 41.1929 27.8108 42.5839 26.072 41.1392C24.333 39.6942 24.3154 35.9665 24.3154 35.9665C24.3154 35.9665 27.9313 35.2489 29.6703 36.6936Z" fill="#479746"/>
<path d="M8.62683 40.3612C10.3659 41.8062 9.57034 44.8605 9.57034 44.8605C9.57034 44.8605 6.76728 46.2515 5.02855 44.8068C3.28982 43.3621 3.27576 39.6331 3.27576 39.6331C3.27576 39.6331 6.8881 38.9162 8.62683 40.3612Z" fill="#479746"/>
<path d="M33.3433 40.2746C32.3918 41.8187 29.8377 41.4713 29.8377 41.4713C29.8377 41.4713 28.3828 39.3449 29.3308 37.8017C30.2823 36.2577 33.2797 35.8843 33.2797 35.8843C33.2797 35.8843 34.2951 38.7309 33.3433 40.2746Z" fill="#80D480"/>
<path d="M26.1857 40.6C25.2342 42.144 22.6801 41.7966 22.6801 41.7966C22.6801 41.7966 21.2252 39.6702 22.1732 38.1271C23.1247 36.583 26.1221 36.2097 26.1221 36.2097C26.1221 36.2097 27.1382 39.06 26.1857 40.6Z" fill="#80D480"/>
<path d="M22.1764 38.1227C23.9155 39.5677 23.1199 42.622 23.1199 42.622C23.1199 42.622 20.3169 44.013 18.5781 42.5683C16.8391 41.1233 16.8253 37.3946 16.8253 37.3946C16.8253 37.3946 20.4374 36.6777 22.1764 38.1227Z" fill="#479746"/>
<path d="M15.1966 40.5368C15.7678 41.635 14.7127 43.009 14.7127 43.009C14.7127 43.009 13.0021 43.1154 12.43 42.0137C11.8588 40.9155 12.6451 39.0278 12.6451 39.0278C12.6451 39.0278 14.6245 39.435 15.1966 40.5368Z" fill="#479746"/>
<path d="M24.4447 39.0665C25.0405 40.7771 23.1579 42.5407 23.1579 42.5407C23.1579 42.5407 20.5872 42.3247 19.9953 40.6134C19.3995 38.9028 21.0034 36.3404 21.0034 36.3404C21.0034 36.3404 23.849 37.3559 24.4447 39.0665Z" fill="#80D480"/>
<path d="M17.4436 40.1654C18.1924 40.1654 18.7994 39.5584 18.7994 38.8096C18.7994 38.0608 18.1924 37.4537 17.4436 37.4537C16.6948 37.4537 16.0877 38.0608 16.0877 38.8096C16.0877 39.5584 16.6948 40.1654 17.4436 40.1654Z" fill="#E0411A"/>
<path d="M6.56087 44.3169C7.30968 44.3169 7.9167 43.7099 7.9167 42.9611C7.9167 42.2123 7.30968 41.6053 6.56087 41.6053C5.81207 41.6053 5.20505 42.2123 5.20505 42.9611C5.20505 43.7099 5.81207 44.3169 6.56087 44.3169Z" fill="#E0411A"/>
<path d="M17.9041 39.114C19.142 40.4408 18.1333 42.8117 18.1333 42.8117C18.1333 42.8117 15.6949 43.6529 14.4615 42.3291C13.2236 41.0023 13.6554 38.0123 13.6554 38.0123C13.6554 38.0123 16.6669 37.7908 17.9041 39.114Z" fill="#80D480"/>
<path d="M9.34191 42.8092C8.45496 43.5833 6.93677 42.8788 6.93677 42.8788C6.93677 42.8788 6.44456 41.2798 7.32798 40.5063C8.21141 39.7328 10.1467 40.0751 10.1467 40.0751C10.1467 40.0751 10.2289 42.035 9.34191 42.8092Z" fill="#479746"/>
<path d="M36.7063 36.5398L0.510992 43.723C0.212148 43.7824 -0.0182977 44.0493 0.0149427 44.3533C0.0510597 44.6917 0.368122 44.9199 0.697011 44.8547L1.49286 44.6968C1.73194 44.6495 1.97677 44.7483 2.11676 44.9458L4.66349 48.5639C5.05342 49.1194 5.73645 49.3917 6.4051 49.2588L33.3321 43.9151C34.0007 43.7824 34.5243 43.2707 34.6764 42.6078L35.6493 38.2952C35.7027 38.0555 35.8919 37.8743 36.131 37.827L36.8894 37.6764C37.1883 37.617 37.4187 37.3501 37.3855 37.0461C37.3484 36.7035 37.0314 36.4753 36.7063 36.5398Z" fill="#1F1F28"/>
<path d="M34.3284 38.8213L3.5388 44.9315C3.37804 44.9635 3.21759 44.8593 3.18499 44.695C3.15302 44.5342 3.25722 44.3738 3.4215 44.3412L34.2111 38.231C34.3719 38.199 34.5323 38.3032 34.5649 38.4675C34.5969 38.6283 34.4892 38.7894 34.3284 38.8213Z" fill="#14141C"/>
<path d="M6.95562 48.2955C6.83161 48.3163 6.71591 48.2616 6.69737 48.1683L6.07475 45.0302C6.05621 44.9369 6.14219 44.842 6.2662 44.8215C6.39021 44.8008 6.50592 44.8554 6.52445 44.9487L7.14707 48.0868C7.16497 48.1763 7.07899 48.2709 6.95562 48.2955Z" fill="#14141C"/>
<path d="M10.0823 47.6747C9.95832 47.6955 9.84262 47.6408 9.82408 47.5475L9.20146 44.4095C9.18292 44.3162 9.2689 44.2212 9.39291 44.2008C9.51692 44.18 9.63262 44.2347 9.65116 44.328L10.2738 47.466C10.2917 47.5555 10.2054 47.6504 10.0823 47.6747Z" fill="#14141C"/>
<path d="M13.2089 47.0544C13.0848 47.0752 12.9691 47.0206 12.9506 46.9272L12.328 43.7892C12.3094 43.6959 12.3954 43.6009 12.5194 43.5805C12.6434 43.5597 12.7592 43.6144 12.7777 43.7077L13.4003 46.8457C13.4182 46.9352 13.3322 47.0298 13.2089 47.0544Z" fill="#14141C"/>
<path d="M16.3357 46.4337C16.2117 46.4544 16.096 46.3998 16.0775 46.3064L15.4548 43.1684C15.4363 43.0751 15.5223 42.9802 15.6463 42.9597C15.7703 42.9389 15.886 42.9936 15.9046 43.0869L16.5272 46.2249C16.5451 46.3148 16.4591 46.4094 16.3357 46.4337Z" fill="#14141C"/>
<path d="M19.4626 45.8134C19.3386 45.8342 19.2229 45.7795 19.2043 45.6862L18.5817 42.5482C18.5632 42.4548 18.6491 42.3599 18.7732 42.3395C18.8972 42.3187 19.0129 42.3733 19.0314 42.4667L19.654 45.6047C19.6719 45.6942 19.586 45.7891 19.4626 45.8134Z" fill="#14141C"/>
<path d="M22.5894 45.193C22.4654 45.2137 22.3497 45.1591 22.3312 45.0658L21.7086 41.9277C21.69 41.8344 21.776 41.7395 21.9 41.719C22.024 41.6982 22.1397 41.7529 22.1583 41.8462L22.7809 44.9842C22.7988 45.0737 22.7128 45.1683 22.5894 45.193Z" fill="#14141C"/>
<path d="M25.7163 44.5722C25.5923 44.593 25.4766 44.5383 25.4581 44.445L24.8354 41.307C24.8169 41.2136 24.9029 41.1187 25.0269 41.0982C25.1509 41.0775 25.2666 41.1321 25.2851 41.2255L25.9078 44.3635C25.9257 44.453 25.8394 44.5479 25.7163 44.5722Z" fill="#14141C"/>
<path d="M28.843 43.9519C28.719 43.9727 28.6033 43.918 28.5848 43.8247L27.9621 40.6867C27.9436 40.5933 28.0296 40.4984 28.1536 40.478C28.2776 40.4572 28.3933 40.5118 28.4118 40.6052L29.0345 43.7432C29.052 43.8327 28.9661 43.9273 28.843 43.9519Z" fill="#14141C"/>
<path d="M31.9695 43.3311C31.8455 43.3519 31.7298 43.2973 31.7113 43.2039L31.0887 40.0659C31.0701 39.9726 31.1561 39.8777 31.2801 39.8572C31.4041 39.8364 31.5198 39.8911 31.5384 39.9844L32.161 43.1224C32.1789 43.2119 32.0929 43.3069 31.9695 43.3311Z" fill="#14141C"/>
<path opacity="0.4" d="M3.05905 42.5146L33.8486 36.4044C34.0094 36.3725 34.1699 36.4767 34.2025 36.6409C34.2344 36.8017 34.1302 36.9622 33.9659 36.9948L3.17635 43.1046C3.01558 43.1366 2.85513 43.0324 2.82253 42.8681C2.79376 42.7032 2.8986 42.5462 3.05905 42.5146Z" fill="white"/>
<path d="M60.8576 51.4568L40.5895 47.7767C40.5061 47.7617 40.4511 47.6821 40.4662 47.5987L40.6445 46.6165C40.6595 46.5331 40.7391 46.4781 40.8225 46.4931L61.0906 50.1732C61.174 50.1882 61.229 50.2678 61.2139 50.3512L61.0356 51.3334C61.0234 51.4146 60.941 51.4718 60.8576 51.4568Z" fill="#018A29"/>
<path d="M55.3428 63.4892L41.5221 60.9799C39.3263 60.5813 37.8551 58.4571 38.254 56.2613L38.3004 56.0056C38.3672 55.6371 38.7229 55.3929 39.0889 55.4594L59.5586 59.1762C59.9271 59.243 60.1713 59.5988 60.1048 59.9648L60.0585 60.2204C59.6625 62.4165 57.5386 63.8878 55.3428 63.4892Z" fill="#E59617"/>
<path d="M49.1052 39.8527L55.6682 41.0443C59.8767 41.8085 62.6695 45.8402 61.9053 50.0486C61.8292 50.4683 61.4284 50.746 61.0088 50.6696L40.7219 46.986C40.3022 46.9099 40.0244 46.5091 40.1008 46.0895C40.865 41.881 44.8967 39.0885 49.1052 39.8527Z" fill="#E59617"/>
<path d="M62.1689 59.664L36.476 54.9988C35.9997 54.9122 35.6804 54.4513 35.7667 53.9751L35.9902 52.7452C36.0768 52.269 36.5377 51.9497 37.0139 52.036L62.7068 56.7011C63.1831 56.7877 63.5024 57.2486 63.4161 57.7249L63.1927 58.9548C63.106 59.4339 62.6455 59.7506 62.1689 59.664Z" fill="#663020"/>
<path d="M60.2198 54.8601L39.9895 51.1868C39.7958 51.1516 39.6657 50.964 39.7009 50.7703L39.8616 49.8849C39.8968 49.6913 40.0844 49.5612 40.2781 49.5963L60.5084 53.2697C60.7021 53.3049 60.8322 53.4925 60.797 53.6862L60.6363 54.5715C60.6014 54.7652 60.4138 54.8953 60.2198 54.8601Z" fill="#018A29"/>
<path d="M62.5205 53.8103L38.2054 49.3954C37.8046 49.3225 37.5358 48.9348 37.6087 48.5337L37.7314 47.8583C37.8043 47.4575 38.192 47.1887 38.5931 47.2616L62.9082 51.6765C63.309 51.7494 63.5778 52.1371 63.5049 52.5382L63.3822 53.2135C63.3093 53.6143 62.9213 53.8828 62.5205 53.8103Z" fill="#663020"/>
<path opacity="0.3" d="M41.9569 44.8395C41.9032 44.8296 41.8511 44.8091 41.8041 44.7784C41.6104 44.6515 41.5542 44.3939 41.6788 44.197C41.7095 44.1497 42.4261 43.0512 43.7154 42.0428C44.4793 41.4477 45.2847 41.0076 46.1126 40.7352C47.1561 40.391 48.2316 40.3165 49.3107 40.5125L55.5321 41.642C55.7609 41.6835 55.9102 41.9025 55.8689 42.1285C55.828 42.3544 55.6085 42.5066 55.3825 42.4653L49.1611 41.3358C48.2221 41.1651 47.2843 41.2313 46.3766 41.5308C45.6405 41.7724 44.9213 42.1671 44.2345 42.7041C43.0557 43.6243 42.3928 44.6407 42.3852 44.6531C42.2893 44.7998 42.1183 44.8689 41.9569 44.8395Z" fill="#FFC54E"/>
<path opacity="0.3" d="M55.1798 63.1008L43.6195 61.0019C43.3907 60.9603 43.2414 60.7414 43.2826 60.5154C43.3235 60.2895 43.5431 60.1373 43.7691 60.1785L55.3294 62.2775C56.3925 62.4705 57.4833 62.0653 58.1731 61.2205C58.3194 61.0415 58.5831 61.0143 58.7621 61.1607C58.9411 61.3071 58.9683 61.5708 58.8219 61.7498C57.9391 62.8291 56.544 63.3485 55.1798 63.1008Z" fill="#BF6811"/>
<path d="M55.2891 43.3631C55.3908 43.4315 55.4157 43.5696 55.3473 43.6713C55.2789 43.7729 55.1408 43.7978 55.0392 43.7294C54.9897 43.6955 54.9136 43.5789 54.8474 43.4696C54.7921 43.3762 54.8717 43.2599 54.9798 43.2768C55.106 43.2992 55.2396 43.3293 55.2891 43.3631Z" fill="#FFC54E"/>
<path d="M45.0788 42.7546C45.1804 42.823 45.2053 42.9611 45.1369 43.0627C45.0685 43.1644 44.9305 43.1893 44.8288 43.1209C44.7793 43.087 44.7032 42.9704 44.6371 42.8611C44.5818 42.7677 44.6614 42.6514 44.7694 42.6683C44.8931 42.6904 45.0292 42.7204 45.0788 42.7546Z" fill="#803E00"/>
<path d="M48.5415 41.1958C48.6432 41.2642 48.6681 41.4023 48.5997 41.5039C48.5313 41.6055 48.3932 41.6305 48.2916 41.5621C48.242 41.5282 48.166 41.4115 48.0998 41.3022C48.0445 41.2089 48.1241 41.0926 48.2321 41.1095C48.3555 41.1341 48.4917 41.1645 48.5415 41.1958Z" fill="#FFC54E"/>
<path d="M57.8981 43.1531C57.9998 43.2215 58.0247 43.3596 57.9563 43.4613C57.8879 43.5629 57.7498 43.5878 57.6482 43.5194C57.5986 43.4855 57.5226 43.3689 57.4564 43.2596C57.4011 43.1662 57.4807 43.0499 57.5887 43.0668C57.7124 43.0889 57.8489 43.1193 57.8981 43.1531Z" fill="#FFC54E"/>
<path d="M52.8711 43.544C52.8948 43.629 52.8427 43.7165 52.7545 43.7424C52.6666 43.768 52.578 43.7188 52.5547 43.6338C52.5426 43.5925 52.555 43.4947 52.5716 43.4033C52.5857 43.3253 52.6857 43.2962 52.7359 43.3554C52.7982 43.4251 52.8593 43.5027 52.8711 43.544Z" fill="#803E00"/>
<path d="M60.1495 44.7627C60.1732 44.8477 60.1211 44.9353 60.0328 44.9612C59.9446 44.9867 59.8564 44.9375 59.8331 44.8525C59.8209 44.8112 59.8334 44.7134 59.85 44.622C59.8641 44.544 59.9641 44.515 60.0143 44.5741C60.0763 44.6438 60.1374 44.7214 60.1495 44.7627Z" fill="#803E00"/>
<path d="M56.5752 43.994C56.5368 43.9147 56.5681 43.8175 56.648 43.7766C56.7276 43.7354 56.8226 43.7638 56.8644 43.8409C56.8826 43.8776 56.8922 43.9793 56.8948 44.0716C56.8973 44.1499 56.8047 44.1998 56.7439 44.1525C56.6704 44.0975 56.5931 44.0336 56.5752 43.994Z" fill="#803E00"/>
<path d="M50.794 43.0751C50.7556 42.9958 50.787 42.8986 50.8669 42.8577C50.9464 42.8165 51.0414 42.8449 51.0832 42.922C51.1015 42.9587 51.111 43.0604 51.1136 43.1527C51.1162 43.231 51.0235 43.2809 50.9627 43.2336C50.8867 43.1751 50.8122 43.1118 50.794 43.0751Z" fill="#FFC54E"/>
<path d="M46.0573 42.1731C46.0189 42.0938 46.0503 41.9967 46.1302 41.9558C46.2097 41.9145 46.3047 41.943 46.3465 42.02C46.3648 42.0568 46.3744 42.1584 46.3769 42.2508C46.3795 42.3291 46.2868 42.379 46.2261 42.3316C46.1522 42.2767 46.0749 42.2127 46.0573 42.1731Z" fill="#FFC54E"/>
<path d="M53.3231 42.464C53.2847 42.3848 53.316 42.2876 53.3959 42.2467C53.4755 42.2055 53.5705 42.2339 53.6123 42.3109C53.6305 42.3477 53.6401 42.4493 53.6427 42.5417C53.6452 42.62 53.5526 42.6699 53.4918 42.6226C53.4186 42.565 53.3442 42.5014 53.3231 42.464Z" fill="#FFC54E"/>
<path d="M50.589 41.4313C50.5507 41.352 50.582 41.2549 50.6619 41.214C50.7415 41.1727 50.8364 41.2012 50.8783 41.2782C50.8965 41.315 50.9061 41.4166 50.9086 41.509C50.9112 41.5873 50.8185 41.6371 50.7578 41.5898C50.6849 41.532 50.6101 41.4684 50.589 41.4313Z" fill="#803E00"/>
<path d="M48.2895 42.4924C48.3643 42.4477 48.4621 42.4764 48.5084 42.5573C48.5554 42.6353 48.5343 42.7372 48.4599 42.7791C48.4228 42.8002 48.3259 42.813 48.2358 42.8191C48.1572 42.8242 48.1038 42.7341 48.1463 42.6695C48.1965 42.5921 48.2524 42.5135 48.2895 42.4924Z" fill="#803E00"/>
<path d="M55.1229 41.5067C55.1977 41.462 55.2955 41.4907 55.3418 41.5716C55.3888 41.6496 55.3674 41.7515 55.2932 41.7934C55.2562 41.8145 55.1593 41.8273 55.0692 41.8334C54.9905 41.8385 54.9372 41.7483 54.9797 41.6838C55.0299 41.6064 55.0884 41.5281 55.1229 41.5067Z" fill="#803E00"/>
<path opacity="0.3" d="M60.5884 50.1681L50.2499 48.291C50.0211 48.2494 49.8718 48.0305 49.9131 47.8045C49.954 47.5785 50.1736 47.4264 50.3995 47.4676L60.7379 49.3447C60.9668 49.3863 61.116 49.6052 61.0748 49.8312C61.0336 50.0572 60.8169 50.2096 60.5884 50.1681Z" fill="#BF6811"/>
<path d="M63.4157 57.7277L63.1923 58.9576C63.1057 59.4338 62.6448 59.7531 62.1686 59.6668L36.4756 55.0017C35.9994 54.9151 35.6801 54.4542 35.7664 53.9779L63.4157 57.7277Z" fill="#5B2214"/>
<path d="M59.9376 56.4154L39.7073 52.742C39.5136 52.7069 39.3835 52.5193 39.4187 52.3256L39.5794 51.4402C39.6146 51.2465 39.8022 51.1165 39.9959 51.1516L60.2262 54.825C60.4199 54.8602 60.55 55.0478 60.5148 55.2415L60.3541 56.1268C60.3189 56.3205 60.1313 56.4506 59.9376 56.4154Z" fill="#F7CA60"/>
<path d="M60.354 56.1269C60.2115 56.9125 55.6585 58.8404 54.9678 58.618C54.2768 58.3981 54.7834 55.5464 52.0493 55.0501C49.3153 54.5537 49.4451 54.0075 49.4451 54.0075L60.354 56.1269Z" fill="#F7CA60"/>
<path d="M60.9824 55.4681L39.0623 51.4879C38.9789 51.4729 38.9239 51.3933 38.9389 51.3099L39.1173 50.3277C39.1323 50.2443 39.2119 50.1893 39.2953 50.2043L61.2154 54.1845C61.2989 54.1996 61.3538 54.2791 61.3388 54.3626L61.1605 55.3448C61.1458 55.4256 61.0658 55.4835 60.9824 55.4681Z" fill="#E0411A"/>
<path d="M61.3094 54.5243L61.1608 55.3422C61.1458 55.4256 61.0662 55.4806 60.9828 55.4656L39.0626 51.4854C38.9792 51.4703 38.9242 51.3907 38.9392 51.3073L61.3094 54.5243Z" fill="#C12E11"/>
</g>
<defs>
<clipPath id="clip0">
<rect width="153.314" height="150" fill="white"/>
</clipPath>
</defs>
</svg>
